<svg width="24" height="19" viewBox="0 0 24 19" fill="none" xmlns="http://www.w3.org/2000/svg">
<path d="M1.63638 18.0045H5.45458V8.73175L0 4.64081V16.3682C0 17.2723 0.732278 18.0045 1.63638 18.0045Z" fill="#4285F4"/>
<path d="M18.5454 18.0045H22.3636C23.2677 18.0045 24 17.2723 24 16.3682V4.64081L18.5454 8.73175V18.0045Z" fill="#34A853"/>
<path d="M18.5454 1.64078V8.73174L24 4.64081V2.45897C24 0.436685 21.6913 -0.718323 20.0727 0.495322L18.5454 1.64078Z" fill="#FBBC04"/>
<path d="M5.45508 8.73171V1.64075L12.0006 6.54987L18.5461 1.64075V8.73171L12.0006 13.6408L5.45508 8.73171Z" fill="#EA4335"/>
<path d="M0 2.45897V4.64081L5.45458 8.73174V1.64078L3.9273 0.495322C2.30865 -0.718323 0 0.436685 0 2.45897Z" fill="#C5221F"/>
</svg>
