<svg width="24" height="24" viewBox="0 0 24 24" fill="none" xmlns="http://www.w3.org/2000/svg">
<path d="M12 24C18.6274 24 24 18.6274 24 12C24 5.37258 18.6274 0 12 0C5.37258 0 0 5.37258 0 12C0 18.6274 5.37258 24 12 24Z" fill="#6001D2"/>
<path d="M7.05443 8.25088L9.03443 13.0629L11.0316 8.25088H14.2493L9.34643 19.5H6.103L7.42985 16.5206L3.74414 8.24916H7.05271L7.05443 8.25088ZM14.9161 12.6566C16.0716 12.6566 16.927 13.4863 16.927 14.5252C16.927 15.5812 16.0356 16.4589 14.8476 16.4589C13.6939 16.4589 12.8367 15.6154 12.8367 14.5903C12.8367 13.5532 13.7281 12.66 14.9179 12.66L14.9161 12.6566ZM20.9144 4.57202L17.6281 11.9435H13.9596L17.2459 4.57202H20.9144Z" fill="white"/>
</svg>
