<svg width="24" height="23" viewBox="0 0 24 23" fill="none" xmlns="http://www.w3.org/2000/svg">
<path d="M23.9996 11.7209C24.0009 11.5333 23.9039 11.3586 23.744 11.2605H23.7412L23.7311 11.2549L15.4149 6.33208C15.379 6.30782 15.3417 6.28564 15.3033 6.26566C14.9822 6.1 14.6007 6.1 14.2796 6.26566C14.2412 6.28565 14.2039 6.30782 14.168 6.33208L5.85181 11.2549L5.84177 11.2605C5.5876 11.4185 5.50968 11.7527 5.66774 12.0069C5.7143 12.0818 5.77845 12.1442 5.8546 12.1886L14.1708 17.1114C14.2069 17.1355 14.2441 17.1577 14.2825 17.1779C14.6035 17.3435 14.985 17.3435 15.3061 17.1779C15.3444 17.1577 15.3817 17.1355 15.4177 17.1114L23.7339 12.1886C23.9001 12.0918 24.0015 11.9132 23.9996 11.7209Z" fill="#0A2767"/>
<path d="M6.82144 8.43404H12.2789V13.4366H6.82144V8.43404ZM22.8835 3.34883V1.06046C22.8967 0.488314 22.4438 0.0137099 21.8717 0H7.70945C7.13731 0.0137099 6.68444 0.488314 6.69754 1.06046V3.34883L15.0696 5.58139L22.8835 3.34883Z" fill="#0364B8"/>
<path d="M6.69775 3.34888H12.2792V8.37213H6.69775V3.34888Z" fill="#0078D4"/>
<path d="M17.8607 3.34888H12.2793V8.37213L17.8607 13.3954H22.8839V8.37213L17.8607 3.34888Z" fill="#28A8EA"/>
<path d="M12.2793 8.37207H17.8606V13.3953H12.2793V8.37207Z" fill="#0078D4"/>
<path d="M12.2793 13.3953H17.8606V18.4186H12.2793V13.3953Z" fill="#0364B8"/>
<path d="M6.82129 13.4366H12.2788V17.9844H6.82129V13.4366Z" fill="#14447D"/>
<path d="M17.8604 13.3953H22.8836V18.4186H17.8604V13.3953Z" fill="#0078D4"/>
<path d="M23.7445 12.158L23.7339 12.1636L15.4176 16.8407C15.3813 16.863 15.3445 16.8843 15.306 16.9032C15.1647 16.9705 15.0113 17.0085 14.855 17.0149L14.4007 16.7492C14.3623 16.7299 14.325 16.7085 14.2891 16.685L5.86117 11.875H5.85726L5.58154 11.7209V21.1892C5.58584 21.8209 6.10127 22.3295 6.73298 22.3255H22.8665C22.876 22.3255 22.8844 22.3211 22.8945 22.3211C23.0279 22.3125 23.1594 22.2851 23.2851 22.2396C23.3395 22.2166 23.3919 22.1893 23.442 22.1581C23.4794 22.1369 23.5436 22.0906 23.5436 22.0906C23.8295 21.879 23.9987 21.5449 24.0001 21.1892V11.7209C23.9999 11.902 23.9023 12.069 23.7445 12.158Z" fill="url(#paint0_linear)"/>
<path opacity="0.5" d="M23.5537 11.6836V12.264L14.8579 18.2512L5.85506 11.8789C5.85506 11.8758 5.85256 11.8733 5.84948 11.8733L5.02344 11.3766V10.958L5.3639 10.9524L6.0839 11.3654L6.10063 11.371L6.16203 11.4101C6.16203 11.4101 14.6234 16.238 14.6457 16.2491L14.9695 16.4389C14.9974 16.4277 15.0253 16.4166 15.0588 16.4054C15.0755 16.3942 23.4587 11.678 23.4587 11.678L23.5537 11.6836Z" fill="#0A2767"/>
<path d="M23.7445 12.158L23.7339 12.1641L15.4176 16.8413C15.3813 16.8636 15.3445 16.8848 15.306 16.9038C14.983 17.0616 14.6053 17.0616 14.2824 16.9038C14.2441 16.8849 14.2069 16.864 14.1707 16.8413L5.85447 12.1641L5.84443 12.158C5.68387 12.0709 5.58321 11.9036 5.58154 11.7209V21.1892C5.58554 21.8208 6.10079 22.3296 6.73238 22.3256C6.73239 22.3256 6.7324 22.3256 6.73243 22.3256H22.8492C23.4808 22.3296 23.9961 21.8209 24.0001 21.1893C24.0001 21.1893 24.0001 21.1892 24.0001 21.1892V11.7209C23.9999 11.902 23.9022 12.069 23.7445 12.158Z" fill="#1490DF"/>
<path opacity="0.1" d="M15.5386 16.7721L15.4141 16.8419C15.378 16.8648 15.3408 16.8859 15.3025 16.9049C15.1653 16.9722 15.0162 17.0117 14.8638 17.021L18.0279 20.7628L23.5473 22.0928C23.6985 21.9786 23.8188 21.8284 23.8973 21.6558L15.5386 16.7721Z" fill="black"/>
<path opacity="0.05" d="M16.1023 16.4551L15.4141 16.8419C15.378 16.8648 15.3408 16.8859 15.3025 16.9049C15.1653 16.9722 15.0162 17.0117 14.8638 17.021L16.3462 21.1083L23.549 22.0912C23.8327 21.8781 23.9998 21.544 23.9999 21.1892V21.067L16.1023 16.4551Z" fill="black"/>
<path d="M6.74805 22.3256H22.8476C23.0953 22.3269 23.3369 22.2487 23.5369 22.1024L14.4001 16.7504C14.3617 16.7311 14.3245 16.7097 14.2885 16.6862L5.8606 11.8761H5.8567L5.58154 11.7209V21.1569C5.58091 21.8018 6.10318 22.325 6.74805 22.3256C6.74804 22.3256 6.74804 22.3256 6.74805 22.3256Z" fill="#28A8EA"/>
<path opacity="0.1" d="M13.3955 5.48815V17.3933C13.3945 17.8107 13.1407 18.1859 12.7536 18.3421C12.6337 18.3936 12.5046 18.4202 12.3741 18.4202H5.58154V5.02322H6.69783V4.46509H12.3741C12.938 4.46722 13.3943 4.92429 13.3955 5.48815Z" fill="black"/>
<path opacity="0.2" d="M12.8374 6.0463V17.9514C12.8388 18.0862 12.8102 18.2196 12.7537 18.342C12.5987 18.7241 12.2283 18.9748 11.816 18.9766H5.58154V5.02324H11.816C11.978 5.02162 12.1376 5.06201 12.2793 5.14046C12.6214 5.31282 12.8373 5.6632 12.8374 6.0463Z" fill="black"/>
<path opacity="0.2" d="M12.8374 6.04631V16.8351C12.8346 17.3987 12.3796 17.8556 11.816 17.8604H5.58154V5.02324H11.816C11.9779 5.02162 12.1375 5.06201 12.2792 5.14046C12.6214 5.31283 12.8372 5.6632 12.8374 6.04631Z" fill="black"/>
<path opacity="0.2" d="M12.2793 6.04632V16.8352C12.2787 17.3996 11.8223 17.8577 11.2579 17.8604H5.58154V5.02325H11.2579C11.8223 5.02356 12.2796 5.48136 12.2793 6.04577C12.2793 6.04595 12.2793 6.04614 12.2793 6.04632Z" fill="black"/>
<path d="M1.02307 5.02325H11.256C11.8211 5.02325 12.2791 5.4813 12.2791 6.04632V16.2792C12.2791 16.8443 11.8211 17.3023 11.256 17.3023H1.02307C0.458039 17.3023 0 16.8443 0 16.2792V6.04632C0 5.4813 0.458052 5.02325 1.02307 5.02325Z" fill="url(#paint1_linear)"/>
<path d="M3.1973 9.31421C3.44946 8.77698 3.85645 8.32739 4.36605 8.02323C4.9304 7.70013 5.57296 7.53905 6.22299 7.55773C6.82545 7.54466 7.41993 7.69739 7.94149 7.99922C8.43188 8.29166 8.82683 8.72016 9.07842 9.23272C9.35241 9.7975 9.48896 10.4191 9.47694 11.0467C9.49022 11.7026 9.34972 12.3525 9.0667 12.9444C8.80912 13.4752 8.40164 13.919 7.89461 14.2208C7.35294 14.5319 6.73639 14.6887 6.11192 14.6741C5.49658 14.6889 4.889 14.5345 4.35545 14.2275C3.86082 13.9347 3.46091 13.5057 3.20345 12.9918C2.92784 12.4352 2.78966 11.8206 2.80048 11.1996C2.789 10.5493 2.92465 9.90475 3.1973 9.31421ZM4.44307 12.3449C4.57751 12.6846 4.80549 12.9791 5.10056 13.1944C5.4011 13.4045 5.76098 13.5128 6.12753 13.5036C6.51789 13.5191 6.90267 13.407 7.22372 13.1844C7.51505 12.9697 7.73704 12.6744 7.86222 12.3349C8.00217 11.9557 8.07123 11.5541 8.06595 11.1499C8.07027 10.742 8.00535 10.3362 7.87394 9.94993C7.75788 9.60119 7.54304 9.29368 7.25553 9.06472C6.94253 8.83155 6.55879 8.71328 6.16883 8.72984C5.79434 8.72014 5.4264 8.82936 5.11786 9.04184C4.8178 9.25805 4.58549 9.55522 4.44809 9.89858C4.14329 10.6856 4.1417 11.5579 4.44362 12.346L4.44307 12.3449Z" fill="white"/>
<path d="M17.8604 3.34888H22.8836V8.37213H17.8604V3.34888Z" fill="#50D9FF"/>
<defs>
<linearGradient id="paint0_linear" x1="14.7908" y1="11.7209" x2="14.7908" y2="22.3256" gradientUnits="userSpaceOnUse">
<stop stop-color="#35B8F1"/>
<stop offset="1" stop-color="#28A8EA"/>
</linearGradient>
<linearGradient id="paint1_linear" x1="2.13313" y1="4.22385" x2="10.1459" y2="18.1018" gradientUnits="userSpaceOnUse">
<stop stop-color="#1784D9"/>
<stop offset="0.5" stop-color="#107AD5"/>
<stop offset="1" stop-color="#0A63C9"/>
</linearGradient>
</defs>
</svg>
