<svg width="23" height="23" viewBox="0 0 23 23" fill="none" xmlns="http://www.w3.org/2000/svg">
<path d="M1.5309 7.35289L11.5399 11.8933C11.8321 12.0261 12.1625 12.0261 12.4547 11.8933L22.4637 7.35289C23.1748 7.0302 23.1748 5.95557 22.4637 5.63288L12.4551 1.09201C12.3116 1.02639 12.1556 0.992432 11.9977 0.992432C11.8399 0.992432 11.6839 1.02639 11.5403 1.09201L1.5309 5.63245C0.819778 5.95514 0.819778 7.0302 1.5309 7.35289ZM22.4641 11.1461L19.9681 10.0148L13.0227 13.163C12.6979 13.3104 12.3529 13.3852 11.9975 13.3852C11.6422 13.3852 11.2976 13.3104 10.9723 13.163L4.02735 10.0148L1.5309 11.1461C0.819778 11.4684 0.819778 12.5426 1.5309 12.8648L11.5399 17.4019C11.8321 17.5342 12.1625 17.5342 12.4547 17.4019L22.4641 12.8648C23.1752 12.5426 23.1752 11.4684 22.4641 11.1461ZM22.4641 16.6374L19.9775 15.5104L13.0227 18.663C12.6979 18.8103 12.3529 18.8851 11.9975 18.8851C11.6422 18.8851 11.2976 18.8103 10.9723 18.663L4.0179 15.5104L1.5309 16.6374C0.819778 16.9597 0.819778 18.0339 1.5309 18.3562L11.5399 22.8932C11.8321 23.0255 12.1625 23.0255 12.4547 22.8932L22.4641 18.3562C23.1752 18.0339 23.1752 16.9597 22.4641 16.6374Z" fill="#21A2CD"/>
</svg>
