<svg width="34" height="30" viewBox="0 0 34 30" fill="none" xmlns="http://www.w3.org/2000/svg">
<path d="M25.4999 12.125C27.5186 12.125 29.1655 10.4764 29.1655 8.45558C29.1655 6.43472 27.5186 4.78613 25.4999 4.78613C23.4811 4.78613 21.8342 6.43472 21.8342 8.45558C21.8342 10.4764 23.4811 12.125 25.4999 12.125Z" fill="#EEBE36"/>
<path d="M31.875 -5.07168e-08H2.125C0.95625 -5.07168e-08 0 0.957247 0 2.12722V27.0156C0 28.1856 0.95625 29.1429 2.125 29.1429H31.875C33.0438 29.1429 34 28.1856 34 27.0156V2.12722C34 0.957247 33.0438 -5.07168e-08 31.875 -5.07168e-08ZM24.0656 14.9969C23.8531 14.731 23.4812 14.5182 23.1094 14.5182C22.7375 14.5182 22.4719 14.6778 22.1531 14.9437L20.6656 16.1668C20.3469 16.3796 20.1344 16.5391 19.8156 16.5391C19.4969 16.5391 19.1781 16.4327 18.9656 16.22C18.9125 16.1668 18.7531 16.0073 18.6469 15.9009L14.5562 11.487C14.2375 11.1147 13.8125 10.902 13.2812 10.902C12.75 10.902 12.325 11.1679 12.0063 11.487L2.44375 23.0803V3.29718C2.49687 2.76538 2.92188 2.39312 3.45312 2.39312H30.6C31.1312 2.39312 31.5563 2.76538 31.5563 3.29718V23.0803L24.0656 14.9969Z" fill="#EEBE36"/>
</svg>
