<svg width="20" height="22" viewBox="0 0 20 22" fill="none" xmlns="http://www.w3.org/2000/svg">
<path d="M6.35938 12.375H4.64062C4.35703 12.375 4.125 12.143 4.125 11.8594V10.1406C4.125 9.85703 4.35703 9.625 4.64062 9.625H6.35938C6.64297 9.625 6.875 9.85703 6.875 10.1406V11.8594C6.875 12.143 6.64297 12.375 6.35938 12.375ZM11 11.8594V10.1406C11 9.85703 10.768 9.625 10.4844 9.625H8.76562C8.48203 9.625 8.25 9.85703 8.25 10.1406V11.8594C8.25 12.143 8.48203 12.375 8.76562 12.375H10.4844C10.768 12.375 11 12.143 11 11.8594ZM15.125 11.8594V10.1406C15.125 9.85703 14.893 9.625 14.6094 9.625H12.8906C12.607 9.625 12.375 9.85703 12.375 10.1406V11.8594C12.375 12.143 12.607 12.375 12.8906 12.375H14.6094C14.893 12.375 15.125 12.143 15.125 11.8594ZM11 15.9844V14.2656C11 13.982 10.768 13.75 10.4844 13.75H8.76562C8.48203 13.75 8.25 13.982 8.25 14.2656V15.9844C8.25 16.268 8.48203 16.5 8.76562 16.5H10.4844C10.768 16.5 11 16.268 11 15.9844ZM6.875 15.9844V14.2656C6.875 13.982 6.64297 13.75 6.35938 13.75H4.64062C4.35703 13.75 4.125 13.982 4.125 14.2656V15.9844C4.125 16.268 4.35703 16.5 4.64062 16.5H6.35938C6.64297 16.5 6.875 16.268 6.875 15.9844ZM15.125 15.9844V14.2656C15.125 13.982 14.893 13.75 14.6094 13.75H12.8906C12.607 13.75 12.375 13.982 12.375 14.2656V15.9844C12.375 16.268 12.607 16.5 12.8906 16.5H14.6094C14.893 16.5 15.125 16.268 15.125 15.9844ZM19.25 4.8125V19.9375C19.25 21.0762 18.3262 22 17.1875 22H2.0625C0.923828 22 0 21.0762 0 19.9375V4.8125C0 3.67383 0.923828 2.75 2.0625 2.75H4.125V0.515625C4.125 0.232031 4.35703 0 4.64062 0H6.35938C6.64297 0 6.875 0.232031 6.875 0.515625V2.75H12.375V0.515625C12.375 0.232031 12.607 0 12.8906 0H14.6094C14.893 0 15.125 0.232031 15.125 0.515625V2.75H17.1875C18.3262 2.75 19.25 3.67383 19.25 4.8125ZM17.1875 19.6797V6.875H2.0625V19.6797C2.0625 19.8215 2.17852 19.9375 2.32031 19.9375H16.9297C17.0715 19.9375 17.1875 19.8215 17.1875 19.6797Z" fill="#51C628"/>
</svg>
