<svg width="26" height="26" viewBox="0 0 26 26" fill="none" xmlns="http://www.w3.org/2000/svg">
<path d="M4.0625 4.36328C6.53385 1.89193 9.51302 0.65625 13 0.65625C16.487 0.65625 19.4492 1.89193 21.8867 4.36328C24.3581 6.80078 25.5938 9.76302 25.5938 13.25C25.5938 16.737 24.3581 19.7161 21.8867 22.1875C19.4492 24.625 16.487 25.8438 13 25.8438C9.51302 25.8438 6.53385 24.625 4.0625 22.1875C1.625 19.7161 0.40625 16.737 0.40625 13.25C0.40625 9.76302 1.625 6.80078 4.0625 4.36328ZM11.5273 7.96875L15.3867 11.625H6.09375C5.75521 11.625 5.46745 11.7435 5.23047 11.9805C4.99349 12.2174 4.875 12.5052 4.875 12.8438V13.6562C4.875 13.9948 4.99349 14.2826 5.23047 14.5195C5.46745 14.7565 5.75521 14.875 6.09375 14.875H15.3867L11.5273 18.5312C11.2904 18.7682 11.1719 19.0729 11.1719 19.4453C11.1719 19.7839 11.2904 20.0716 11.5273 20.3086L12.0859 20.8672C12.3229 21.1042 12.6107 21.2227 12.9492 21.2227C13.2878 21.2227 13.5755 21.1042 13.8125 20.8672L20.5156 14.1133C20.7526 13.8763 20.8711 13.5885 20.8711 13.25C20.8711 12.9115 20.7526 12.6237 20.5156 12.3867L13.8125 5.63281C13.5755 5.39583 13.2878 5.27734 12.9492 5.27734C12.6107 5.27734 12.3229 5.39583 12.0859 5.63281L11.5273 6.19141C11.2904 6.42839 11.1719 6.73307 11.1719 7.10547C11.1719 7.44401 11.2904 7.73177 11.5273 7.96875Z" fill="#E95E5E"/>
</svg>
