<svg width="34" height="32" viewBox="0 0 34 32" fill="none" xmlns="http://www.w3.org/2000/svg">
<g clip-path="url(#clip0)">
<path d="M19.9027 29.1542V28.9704C19.9027 27.6361 18.8058 26.5544 17.4528 26.5544H2.44988C1.09685 26.5544 0 27.6361 0 28.9704V29.1542C0 30.4885 1.09685 31.5701 2.44988 31.5701H17.4528C18.8058 31.5701 19.9027 30.4885 19.9027 29.1542Z" fill="#9041F5"/>
<path d="M16.931 24.1289V24.0081C16.931 23.1437 16.2204 22.443 15.3439 22.443H4.99579C4.11926 22.443 3.40869 23.1437 3.40869 24.0081V24.1289C3.40869 24.9933 4.11926 25.694 4.99579 25.694H15.3439C16.2204 25.694 16.931 24.9933 16.931 24.1289Z" fill="#9041F5"/>
<path d="M33.8621 27.6423L33.9047 27.8996C33.9947 28.1056 34.022 28.333 33.9832 28.554C33.9445 28.7751 33.8413 28.9802 33.6863 29.1444L32.5466 30.3523C32.3498 30.5604 32.1057 30.7193 31.8344 30.8161C31.5631 30.9129 31.2723 30.9448 30.9861 30.9091C30.6245 30.909 30.2778 30.7673 30.0221 30.5152L22.0973 22.7001C21.6006 22.2195 21.2344 21.6235 21.0321 20.967L20.7179 19.9166C20.6787 19.7863 20.6773 19.6478 20.7141 19.5169C20.7508 19.386 20.8241 19.2678 20.9256 19.176L22.2091 18.0048C22.2795 17.9404 22.365 17.8942 22.458 17.8703C22.5509 17.8465 22.6484 17.8458 22.7417 17.8683L23.498 18.0573C24.4408 18.2905 25.3009 18.7736 25.9851 19.4544L33.4147 26.7705C33.6537 27.007 33.8104 27.3123 33.8621 27.6423Z" fill="#9041F5"/>
<path d="M12.0227 20.1468L12.1658 20.0057C13.1558 19.0294 13.1558 17.4465 12.1658 16.4702L7.76717 12.1325C6.77715 11.1562 5.17202 11.1562 4.182 12.1325L4.03889 12.2736C3.04888 13.2499 3.04888 14.8328 4.0389 15.8091L8.4375 20.1468C9.42752 21.1231 11.0326 21.1231 12.0227 20.1468Z" fill="#9041F5"/>
<path d="M22.9641 9.78202L23.1072 9.64089C24.0972 8.6646 24.0972 7.0817 23.1072 6.1054L18.7086 1.76774C17.7186 0.791447 16.1135 0.791448 15.1234 1.76775L14.9803 1.90887C13.9903 2.88517 13.9903 4.46806 14.9803 5.44436L19.3789 9.78202C20.369 10.7583 21.9741 10.7583 22.9641 9.78202Z" fill="#9041F5"/>
<path d="M16.9163 13.3417L16.2045 14.0436C15.9383 14.3061 15.9383 14.7317 16.2045 14.9943L19.7784 18.5186C20.0446 18.7812 20.4762 18.7812 20.7424 18.5186L21.4542 17.8167C21.7204 17.5542 21.7204 17.1285 21.4542 16.866L17.8803 13.3417C17.6141 13.0791 17.1825 13.0791 16.9163 13.3417Z" fill="#9041F5"/>
<path d="M19.2582 10.6356L16.1479 13.3036L13.453 16.3918L8.10059 11.145L11.2162 8.47174L13.9057 5.38879L19.2582 10.6356Z" fill="#9041F5"/>
</g>
<defs>
<clipPath id="clip0">
<rect width="34" height="32" fill="white"/>
</clipPath>
</defs>
</svg>
