<svg width="34" height="31" viewBox="0 0 34 31" fill="none" xmlns="http://www.w3.org/2000/svg">
<path d="M1.17537 27.9918C1.17537 27.9918 2.87627 28.0441 6.22491 26.9974C6.22491 26.9974 7.55374 28.5151 9.4141 29.3525C11.4871 30.2945 18.9285 32.0215 25.3069 26.3694C34.024 18.7287 34.9807 -1.57699 33.333 0.0977039C26.4231 7.21514 17.4934 3.81343 11.5934 8.47116C7.18167 11.9776 4.47086 18.5193 5.37446 23.6481C5.37446 23.6481 5.05554 24.2761 0.803296 24.9041C-0.578685 25.1134 0.0059995 28.1488 1.17537 27.9918ZM7.76635 23.3341C20.7357 19.1997 28.0708 10.6169 28.0708 10.6169C28.0708 10.6169 19.7258 22.0257 8.56365 25.2704C8.13842 24.9041 7.76635 23.9621 7.76635 23.3341Z" fill="#B7B7B7"/>
<path d="M1.17537 27.9918C1.17537 27.9918 2.87627 28.0441 6.22491 26.9974C6.22491 26.9974 7.55374 28.5151 9.4141 29.3525C11.4871 30.2945 18.9285 32.0215 25.3069 26.3694C34.024 18.7287 34.9807 -1.57699 33.333 0.0977039C26.4231 7.21514 17.4934 3.81343 11.5934 8.47116C7.18167 11.9776 4.47086 18.5193 5.37446 23.6481C5.37446 23.6481 5.05554 24.2761 0.803296 24.9041C-0.578685 25.1134 0.0059995 28.1488 1.17537 27.9918ZM7.76635 23.3341C20.7357 19.1997 28.0708 10.6169 28.0708 10.6169C28.0708 10.6169 19.7258 22.0257 8.56365 25.2704C8.13842 24.9041 7.76635 23.9621 7.76635 23.3341Z" fill="#53B700"/>
</svg>
