<svg width="27" height="21" viewBox="0 0 27 21" fill="none" xmlns="http://www.w3.org/2000/svg">
<path d="M22.5 18V18.75C22.5 19.9927 21.4927 21 20.25 21H2.25C1.00734 21 0 19.9927 0 18.75V6.75C0 5.50734 1.00734 4.5 2.25 4.5H3V14.25C3 16.3177 4.68225 18 6.75 18H22.5ZM27 14.25V2.25C27 1.00734 25.9927 0 24.75 0H6.75C5.50734 0 4.5 1.00734 4.5 2.25V14.25C4.5 15.4927 5.50734 16.5 6.75 16.5H24.75C25.9927 16.5 27 15.4927 27 14.25ZM12 4.5C12 5.74266 10.9927 6.75 9.75 6.75C8.50734 6.75 7.5 5.74266 7.5 4.5C7.5 3.25734 8.50734 2.25 9.75 2.25C10.9927 2.25 12 3.25734 12 4.5ZM7.5 11.25L10.1023 8.64773C10.3219 8.42808 10.6781 8.42808 10.8978 8.64773L12.75 10.5L19.1023 4.14773C19.3219 3.92808 19.6781 3.92808 19.8978 4.14773L24 8.25V13.5H7.5V11.25Z" fill="#269FC8"/>
</svg>
