<svg width="34" height="25" viewBox="0 0 34 25" fill="none" xmlns="http://www.w3.org/2000/svg">
<path d="M14.0562 22.6558C12.624 23.7424 10.9267 24.2857 9.01716 24.2857C6.20593 24.2857 3.97816 23.2534 2.3869 21.2432C0.795632 19.1787 0 16.7881 0 13.9629C0 11.844 0.371295 9.94247 1.11388 8.2039C1.85647 6.51966 2.91732 5.05273 4.29641 3.80313C5.67551 2.55353 7.26677 1.62991 9.17629 0.977948C11.0858 0.325983 12.9953 2.07254e-07 14.9579 2.07254e-07V1.30393C12.0406 1.90157 9.86584 2.87951 8.32761 4.18345C6.84243 5.54171 6.09984 7.55193 6.09984 10.3228C6.09984 11.8984 6.36505 13.0936 6.84243 14.0716C7.58502 13.474 8.32761 13.0936 9.01716 12.8763C9.70671 12.659 10.3963 12.5503 11.0858 12.5503C12.7301 12.5503 14.0031 13.0936 14.9048 14.2346C15.7535 15.3755 16.2309 16.5708 16.2309 17.8204C16.2309 19.9936 15.4883 21.5692 14.0562 22.6558ZM31.7722 22.6558C30.3401 23.7424 28.6427 24.2857 26.7332 24.2857C23.922 24.2857 21.6412 23.2534 19.9969 21.2432C18.3526 19.1787 17.5039 16.7881 17.5039 13.9629C17.5039 11.844 17.9282 9.94247 18.7769 8.2039C19.6256 6.51966 20.6864 5.05273 22.0655 3.80313C23.4446 2.55353 25.0359 1.62991 26.9454 0.977948C28.8019 0.325983 30.7644 2.07254e-07 32.727 2.07254e-07V1.30393C29.8097 1.90157 27.6349 2.87951 26.0967 4.18345C24.6115 5.54171 23.869 7.55193 23.869 10.3228C23.869 12.0614 24.1342 13.311 24.6115 14.0716C25.3541 13.474 26.0967 13.0936 26.7863 12.8763C27.4758 12.659 28.1654 12.5503 28.8549 12.5503C30.4992 12.5503 31.7722 13.0936 32.6739 14.2346C33.5226 15.3755 34 16.5708 34 17.8204C33.947 19.9936 33.2044 21.5692 31.7722 22.6558Z" fill="#B7B7B7"/>
<path d="M14.0562 22.6558C12.624 23.7424 10.9267 24.2857 9.01716 24.2857C6.20593 24.2857 3.97816 23.2534 2.3869 21.2432C0.795632 19.1787 0 16.7881 0 13.9629C0 11.844 0.371295 9.94247 1.11388 8.2039C1.85647 6.51966 2.91732 5.05273 4.29641 3.80313C5.67551 2.55353 7.26677 1.62991 9.17629 0.977948C11.0858 0.325983 12.9953 2.07254e-07 14.9579 2.07254e-07V1.30393C12.0406 1.90157 9.86584 2.87951 8.32761 4.18345C6.84243 5.54171 6.09984 7.55193 6.09984 10.3228C6.09984 11.8984 6.36505 13.0936 6.84243 14.0716C7.58502 13.474 8.32761 13.0936 9.01716 12.8763C9.70671 12.659 10.3963 12.5503 11.0858 12.5503C12.7301 12.5503 14.0031 13.0936 14.9048 14.2346C15.7535 15.3755 16.2309 16.5708 16.2309 17.8204C16.2309 19.9936 15.4883 21.5692 14.0562 22.6558ZM31.7722 22.6558C30.3401 23.7424 28.6427 24.2857 26.7332 24.2857C23.922 24.2857 21.6412 23.2534 19.9969 21.2432C18.3526 19.1787 17.5039 16.7881 17.5039 13.9629C17.5039 11.844 17.9282 9.94247 18.7769 8.2039C19.6256 6.51966 20.6864 5.05273 22.0655 3.80313C23.4446 2.55353 25.0359 1.62991 26.9454 0.977948C28.8019 0.325983 30.7644 2.07254e-07 32.727 2.07254e-07V1.30393C29.8097 1.90157 27.6349 2.87951 26.0967 4.18345C24.6115 5.54171 23.869 7.55193 23.869 10.3228C23.869 12.0614 24.1342 13.311 24.6115 14.0716C25.3541 13.474 26.0967 13.0936 26.7863 12.8763C27.4758 12.659 28.1654 12.5503 28.8549 12.5503C30.4992 12.5503 31.7722 13.0936 32.6739 14.2346C33.5226 15.3755 34 16.5708 34 17.8204C33.947 19.9936 33.2044 21.5692 31.7722 22.6558Z" fill="#8CC24B"/>
</svg>
