<svg width="22" height="22" viewBox="0 0 22 22" fill="none" xmlns="http://www.w3.org/2000/svg">
<path d="M21.1083 0H12.0546C11.5744 0 10.9571 0.275 10.6142 0.584375L0.25721 11C-0.0857365 11.3438 -0.0857365 11.8594 0.25721 12.2031L9.79111 21.7594C9.96259 21.9312 10.1684 22 10.3741 22C10.5799 22 10.82 21.9312 10.9571 21.7594C10.9571 21.7594 14.5238 18.1844 14.3523 18.3563C14.1808 18.5281 14.3523 15.95 14.3523 15.95L10.7171 19.6625C10.5456 19.8344 10.2712 19.8344 10.0998 19.6625L2.34918 11.8937C2.17771 11.7219 2.17771 11.4469 2.34918 11.275L11.8145 1.82187C11.8488 1.7875 12.0203 1.71875 12.0889 1.71875H19.8394C20.0795 1.71875 20.2853 1.925 20.2853 2.16563V9.93437C20.2853 10.0031 20.2167 10.1406 20.1824 10.2094L17.8161 12.5812L14.1396 16.1672C14.1396 16.6484 13.5754 18.6389 14.0556 18.6389C14.7757 17.9514 17.8161 14.9875 17.8161 14.9875L21.417 11.3781C21.7599 11.0344 22 10.4156 22 9.93437V0.859375C21.9657 0.378125 21.5885 0 21.1083 0Z" fill="#FF6B00"/>
<path d="M9.36582 13.3781C8.92585 13.6222 8.54229 13.7596 8.22005 13.7746L8.2189 13.7746L8.21889 13.7746C7.89018 13.7868 7.6058 13.6754 7.37404 13.4431C7.1124 13.1809 7.00007 12.856 7.03772 12.48L9.36582 13.3781ZM9.36582 13.3781C9.71013 13.1879 9.95624 13.0921 10.113 13.0734L10.1141 13.0732C10.2516 13.0556 10.3779 13.0992 10.5003 13.2219C10.6202 13.3421 10.6652 13.4745 10.6447 13.629C10.6238 13.7865 10.5275 13.964 10.3307 14.1612C10.1224 14.37 9.91722 14.4786 9.71546 14.5043C9.51936 14.5267 9.34819 14.4658 9.19345 14.3107L9.10517 14.2222L9.01688 14.3107L8.62252 14.706L8.53424 14.7945L8.62252 14.883C8.81286 15.0737 9.03811 15.1936 9.29598 15.2393L9.29598 15.2393L9.2968 15.2394C9.5551 15.2833 9.82232 15.2498 10.0959 15.1448L10.0966 15.1445C10.3684 15.0382 10.6123 14.876 10.8281 14.6597C11.1559 14.3312 11.3528 13.9829 11.401 13.6146L11.4011 13.6141C11.4482 13.2406 11.3352 12.9142 11.0672 12.6456C10.9025 12.4805 10.7175 12.3696 10.5123 12.3197C10.3096 12.2686 10.0874 12.2772 9.84931 12.3382C9.61053 12.3967 9.32919 12.5193 9.00727 12.7007C8.69542 12.8759 8.46244 12.9644 8.3017 12.9823C8.14865 12.9967 8.03295 12.9549 7.94089 12.8627C7.81353 12.735 7.76644 12.6 7.78448 12.45L7.78451 12.4498C7.80327 12.2916 7.8924 12.1215 8.0737 11.9398C8.26801 11.745 8.45364 11.6555 8.63122 11.6466L8.63122 11.6466L8.63204 11.6465C8.80692 11.6366 8.97189 11.7022 9.13131 11.862L9.2196 11.9505L9.30788 11.862L9.70224 11.4667L9.79053 11.3782L9.70224 11.2897C9.52071 11.1077 9.30344 10.9882 9.0529 10.9325C8.80238 10.8751 8.54609 10.8925 8.28677 10.9811C8.02762 11.0686 7.7902 11.2228 7.57429 11.4392C7.25913 11.7551 7.07527 12.1022 7.03772 12.4799L9.36582 13.3781ZM9.2196 11.7735C9.03978 11.5932 8.84158 11.5093 8.62498 11.5216L9.61396 11.3782L9.52567 11.4667L9.30788 11.685L9.2196 11.7735ZM12.4444 12.9577L12.5064 12.8956L12.4691 12.816L12.0099 11.8367L13.1326 10.7113L14.1139 11.1681L14.1931 11.2049L14.2548 11.1431L14.6573 10.7396L14.7856 10.611L14.62 10.5368L10.5067 8.69558L10.4283 8.66046L10.3675 8.72135L10.0242 9.06544L9.96346 9.12637L9.99856 9.20503L11.8376 13.3259L11.9116 13.4918L12.0398 13.3632L12.4444 12.9577ZM16.5413 8.03114L16.453 7.94264L16.3647 8.03114L15.0431 9.35585L12.4771 6.78383L12.3888 6.69534L12.3005 6.78383L11.9062 7.17912L11.8179 7.26761L11.9062 7.3561L14.8813 10.3382L14.9695 10.4267L15.0578 10.3382L16.8621 8.52967L16.9504 8.44118L16.8621 8.35269L16.5413 8.03114ZM17.6161 5.01714L17.7044 4.92865L17.6161 4.84016L17.2953 4.5186L17.207 4.43011L17.1187 4.5186L15.9176 5.72248L15.1379 4.94094L16.527 3.54863L16.6153 3.46014L16.527 3.37165L16.2041 3.04805L16.1159 2.95956L16.0276 3.04805L14.1579 4.92208L14.0696 5.01057L14.1579 5.09906L17.133 8.08113L17.2213 8.16962L17.3096 8.08113L19.1997 6.18662L19.288 6.09813L19.1997 6.00964L18.8789 5.68808L18.7906 5.59959L18.7023 5.68808L17.2928 7.10087L16.415 6.22102L17.6161 5.01714ZM11.6929 11.1532L11.0271 9.72619L12.4523 10.392L11.6929 11.1532Z" fill="#FF6B00" stroke="#FF6B00" stroke-width="0.25"/>
</svg>
