<svg width="26" height="16" viewBox="0 0 26 16" fill="none" xmlns="http://www.w3.org/2000/svg">
<path d="M25.0566 5.33594C23.0254 5.49219 20.1348 7.48438 18.6895 8.14844C17.5566 8.65625 16.541 9.08594 15.7207 9.08594C14.8223 9.08594 14.7051 8.46094 14.8613 7.05469C14.9004 6.74219 15.3301 3.96875 13.2207 4.08594C12.2051 4.16406 10.6816 5.0625 6.58008 9.00781L8.2207 4.98438C9.39258 2.01562 6.11133 -0.953125 3.14258 0.960938L0.994141 2.40625C0.720703 2.5625 0.603516 2.95312 0.798828 3.26562L1.46289 4.32031C1.6582 4.59375 2.04883 4.71094 2.32227 4.51562L4.58789 2.99219C5.33008 2.52344 6.18945 3.26562 5.87695 4.04688L2.04883 13.6562C1.77539 14.2812 2.16602 15.3359 3.2207 15.3359C3.5332 15.3359 3.8457 15.2188 4.08008 14.9844C5.7207 13.3438 10.1348 9.08594 12.3223 7.32812C12.2441 8.46094 12.2441 9.63281 13.1426 10.6094C13.7285 11.2734 14.5879 11.5859 15.6816 11.5859C17.0879 11.5859 18.3379 11.0391 19.7051 10.4141C20.9941 9.86719 23.5723 7.99219 25.0957 7.875C25.4473 7.83594 25.6816 7.5625 25.6816 7.25V6C25.7207 5.64844 25.4082 5.33594 25.0566 5.33594Z" fill="#AAAAAA"/>
</svg>
