<svg width="34" height="29" viewBox="0 0 34 29" fill="none" xmlns="http://www.w3.org/2000/svg">
<path d="M0 12.2656C0 11.8113 0.212654 10.8016 0.691126 10.8016H9.1973C9.67577 10.8016 10.1542 11.8618 10.1542 12.2656V28.0667C10.1542 28.521 9.7821 28.5715 9.1973 28.5715H0.691126C0.212654 28.5715 0 28.521 0 28.0667V12.2656H0Z" fill="#39559F"/>
<path d="M14.4074 9.28674H32.0045C33.1741 9.28674 34.1842 12.2652 33.9716 13.2749C33.9716 13.2749 31.2602 23.8257 30.516 25.4411C29.7717 27.0566 27.6451 27.0566 27.1135 27.0566H15.2048" fill="#39559F"/>
<path d="M27.326 27.0569H16.8528H16.0021C14.1946 27.0569 10.6326 25.0376 10.6326 25.0376V13.3762L12.4402 12.7199L16.1616 6.35909C16.1616 6.35909 16.0021 3.02725 16.3743 1.96712C16.7464 0.906983 20.2021 -0.910387 22.2223 3.22918C24.2425 7.36874 22.5413 9.2366 22.5413 9.2366" fill="#39559F"/>
</svg>
