<svg width="27" height="18" viewBox="0 0 27 18" fill="none" xmlns="http://www.w3.org/2000/svg">
<path d="M25.4531 1.5C25.1719 1.5 24.8906 1.59375 24.6094 1.78125L19.5 5.01562V2.25C19.5 1.03125 18.375 0 17.0625 0H2.39062C1.07812 0 0 1.03125 0 2.25V15.7969C0 17.0156 1.07812 18 2.39062 18H17.0625C18.375 18 19.5 17.0156 19.5 15.7969V13.0312L24.6094 16.2656C24.8906 16.4531 25.1719 16.5 25.4531 16.5C26.25 16.5 27 15.8906 27 15.0469V3C27 2.10938 26.25 1.5 25.4531 1.5ZM17.25 6.375V15.7031C17.2031 15.75 17.1562 15.75 17.0625 15.75H2.39062C2.29688 15.75 2.25 15.75 2.25 15.7031V2.34375C2.25 2.29688 2.29688 2.25 2.39062 2.25H17.0625C17.1562 2.25 17.2031 2.29688 17.25 2.34375V6.375ZM24.75 13.6875L19.5 10.4062V7.64062L24.75 4.35938V13.6875Z" fill="#2D8CFF"/>
</svg>
