<svg width="24" height="19" viewBox="0 0 24 19" fill="none" xmlns="http://www.w3.org/2000/svg">
<path d="M11.6886 13.587C11.4283 13.2833 11.0379 13.0881 10.6042 13.0881C9.81801 13.0881 9.17822 13.7279 9.17822 14.5141C9.17822 15.3003 9.81801 15.9401 10.6042 15.9401C11.0379 15.9401 11.4283 15.7449 11.6886 15.4413C11.9488 15.7449 12.3392 15.9401 12.773 15.9401C13.5591 15.9401 14.1989 15.3003 14.1989 14.5141C14.1989 13.7279 13.5591 13.0881 12.773 13.0881C12.3392 13.0881 11.9488 13.2833 11.6886 13.587Z" fill="#E05A29"/>
<path d="M9.20537 4.66238H16.9479L15.3701 1.47428C14.8333 0.389898 13.505 -0.0601227 12.4206 0.476649L1.22428 6.00702C0.139898 6.54379 -0.310123 7.87217 0.226649 8.95655L3.72922 16.0484C4.20093 17.0027 5.28531 17.469 6.28295 17.1979C5.99016 16.6991 5.82208 16.1189 5.82208 15.5008V8.04025C5.82751 6.18594 7.34565 4.66238 9.20537 4.66238Z" fill="#E05A29"/>
<path d="M8.35398 15.9999V10.437H22.6787V10.9954C22.7275 10.9954 22.7817 10.99 22.8305 10.99H23.6167C23.7035 10.99 23.7848 10.9954 23.8661 11.0008V8.06214C23.8661 6.85305 22.8739 5.86084 21.6648 5.86084H9.17811C7.96902 5.86084 6.97681 6.85305 6.97681 8.06214V15.9727C6.97681 17.1818 7.96902 18.1741 9.17811 18.1741H18.9484V16.7969H9.151C8.71183 16.7969 8.35398 16.439 8.35398 15.9999ZM8.35398 8.03504C8.35398 7.59586 8.71183 7.23801 9.151 7.23801H21.8817C22.3209 7.23801 22.6787 7.59586 22.6787 8.03504V8.33866H8.35398V8.03504Z" fill="#E05A29"/>
<path d="M22.489 15.9999V10.437H8.16429V10.9954C8.1155 10.9954 8.06128 10.99 8.01248 10.99H7.2263C7.13955 10.99 7.05822 10.9954 6.97689 11.0008V8.06214C6.97689 6.85305 7.9691 5.86084 9.17819 5.86084H21.6649C22.874 5.86084 23.8662 6.85305 23.8662 8.06214V15.9727C23.8662 17.1818 22.874 18.1741 21.6649 18.1741H11.8946V16.7969H21.692C22.1312 16.7969 22.489 16.439 22.489 15.9999ZM22.489 8.03504C22.489 7.59586 22.1312 7.23801 21.692 7.23801H8.96132C8.52214 7.23801 8.16429 7.59586 8.16429 8.03504V8.33866H22.489V8.03504Z" fill="#E05A29"/>
</svg>
