<svg width="25" height="25" viewBox="0 0 25 25" fill="none" xmlns="http://www.w3.org/2000/svg">
<path d="M21.875 4.6875H3.125C2.7106 4.6875 2.31317 4.85212 2.02015 5.14515C1.72712 5.43817 1.5625 5.8356 1.5625 6.25V18.75C1.5625 19.1644 1.72712 19.5618 2.02015 19.8549C2.31317 20.1479 2.7106 20.3125 3.125 20.3125H21.875C22.2894 20.3125 22.6868 20.1479 22.9799 19.8549C23.2729 19.5618 23.4375 19.1644 23.4375 18.75V6.25C23.4375 5.8356 23.2729 5.43817 22.9799 5.14515C22.6868 4.85212 22.2894 4.6875 21.875 4.6875ZM20.1562 6.25L12.5 11.5469L4.84375 6.25H20.1562ZM3.125 18.75V6.96094L12.0547 13.1406C12.1855 13.2313 12.3408 13.28 12.5 13.28C12.6592 13.28 12.8145 13.2313 12.9453 13.1406L21.875 6.96094V18.75H3.125Z" fill="#CCCCCC"/>
</svg>
