<svg width="25" height="25" viewBox="0 0 25 25" fill="none" xmlns="http://www.w3.org/2000/svg">
<path d="M12.5 2.08331C9.74823 2.11841 7.11905 3.22714 5.1731 5.17309C3.22716 7.11904 2.11842 9.74822 2.08333 12.5C2.09619 14.103 2.47887 15.6815 3.20157 17.1124C3.92427 18.5433 4.96749 19.7882 6.25 20.75V20.8333H6.35416C8.11789 22.1849 10.278 22.9173 12.5 22.9173C14.722 22.9173 16.8821 22.1849 18.6458 20.8333H18.75V20.75C20.0325 19.7882 21.0757 18.5433 21.7984 17.1124C22.5211 15.6815 22.9038 14.103 22.9167 12.5C22.8816 9.74822 21.7728 7.11904 19.8269 5.17309C17.8809 3.22714 15.2518 2.11841 12.5 2.08331ZM8.40625 19.7187C8.55831 19.0223 8.9439 18.3988 9.49904 17.9517C10.0542 17.5045 10.7455 17.2606 11.4583 17.2604H13.5417C14.2545 17.2606 14.9458 17.5045 15.5009 17.9517C16.0561 18.3988 16.4417 19.0223 16.5937 19.7187C15.353 20.4487 13.9396 20.8337 12.5 20.8337C11.0604 20.8337 9.64701 20.4487 8.40625 19.7187ZM18.3437 18.375C17.9475 17.4281 17.2803 16.6193 16.426 16.0504C15.5716 15.4814 14.5681 15.1776 13.5417 15.1771H11.4583C10.4318 15.1776 9.4284 15.4814 8.57403 16.0504C7.71966 16.6193 7.05247 17.4281 6.65625 18.375C5.87569 17.6073 5.25406 16.6933 4.82688 15.6852C4.39971 14.6771 4.17536 13.5948 4.16666 12.5C4.19368 10.2982 5.08033 8.19428 6.63731 6.6373C8.1943 5.08031 10.2983 4.19366 12.5 4.16665C14.7017 4.19366 16.8057 5.08031 18.3627 6.6373C19.9197 8.19428 20.8063 10.2982 20.8333 12.5C20.8246 13.5948 20.6003 14.6771 20.1731 15.6852C19.7459 16.6933 19.1243 17.6073 18.3437 18.375Z" fill="#CCCCCC"/>
<path d="M12.5 6.25001C11.9493 6.23718 11.4018 6.33618 10.8904 6.54104C10.3791 6.74589 9.91466 7.05233 9.52516 7.44183C9.13566 7.83133 8.82922 8.29578 8.62437 8.80711C8.41951 9.31843 8.32051 9.86599 8.33333 10.4167C8.32051 10.9674 8.41951 11.5149 8.62437 12.0262C8.82922 12.5376 9.13566 13.002 9.52516 13.3915C9.91466 13.781 10.3791 14.0875 10.8904 14.2923C11.4018 14.4972 11.9493 14.5962 12.5 14.5833C13.0507 14.5962 13.5982 14.4972 14.1096 14.2923C14.6209 14.0875 15.0853 13.781 15.4748 13.3915C15.8643 13.002 16.1708 12.5376 16.3756 12.0262C16.5805 11.5149 16.6795 10.9674 16.6667 10.4167C16.6795 9.86599 16.5805 9.31843 16.3756 8.80711C16.1708 8.29578 15.8643 7.83133 15.4748 7.44183C15.0853 7.05233 14.6209 6.74589 14.1096 6.54104C13.5982 6.33618 13.0507 6.23718 12.5 6.25001ZM12.5 12.5C12.2229 12.5134 11.946 12.4687 11.6872 12.3687C11.4283 12.2688 11.1933 12.1158 10.9971 11.9196C10.8009 11.7234 10.6479 11.4883 10.5479 11.2295C10.448 10.9707 10.4033 10.6938 10.4167 10.4167C10.4033 10.1395 10.448 9.86266 10.5479 9.60384C10.6479 9.34501 10.8009 9.10995 10.9971 8.91375C11.1933 8.71756 11.4283 8.56457 11.6872 8.46462C11.946 8.36466 12.2229 8.31994 12.5 8.33334C12.7771 8.31994 13.054 8.36466 13.3128 8.46462C13.5717 8.56457 13.8067 8.71756 14.0029 8.91375C14.1991 9.10995 14.3521 9.34501 14.4521 9.60384C14.552 9.86266 14.5967 10.1395 14.5833 10.4167C14.5967 10.6938 14.552 10.9707 14.4521 11.2295C14.3521 11.4883 14.1991 11.7234 14.0029 11.9196C13.8067 12.1158 13.5717 12.2688 13.3128 12.3687C13.054 12.4687 12.7771 12.5134 12.5 12.5Z" fill="#CCCCCC"/>
</svg>
