<svg width="230" height="51" viewBox="0 0 230 51" fill="none" xmlns="http://www.w3.org/2000/svg">
<path opacity="0.4" d="M132 20.2C132 9.15426 123.046 0.199951 112 0.199951V0.199951C100.954 0.199951 92 9.15426 92 20.2V20.2C92 31.2456 100.954 40.2 112 40.2V40.2C123.046 40.2 132 31.2456 132 20.2V20.2Z" fill="#1CB4E7"/>
<mask id="mask0" mask-type="alpha" maskUnits="userSpaceOnUse" x="92" y="0" width="40" height="41">
<path d="M132 20.2C132 9.15426 123.046 0.199951 112 0.199951V0.199951C100.954 0.199951 92 9.15426 92 20.2V20.2C92 31.2456 100.954 40.2 112 40.2V40.2C123.046 40.2 132 31.2456 132 20.2V20.2Z" fill="#F0F4F6"/>
</mask>
<g mask="url(#mask0)">
<path d="M99.3621 41.3462C99.3621 34.3432 105.014 28.666 111.986 28.666C118.958 28.666 124.61 34.3432 124.61 41.3462V41.3462C124.61 41.9828 124.094 42.4989 123.457 42.4989H100.515C99.8782 42.4989 99.3621 41.9828 99.3621 41.3462V41.3462Z" fill="white"/>
<path d="M112.56 29.8184C117.947 29.8184 122.314 25.4316 122.314 20.0201C122.314 14.6087 117.947 10.2218 112.56 10.2218C107.172 10.2218 102.805 14.6087 102.805 20.0201C102.805 25.4316 107.172 29.8184 112.56 29.8184Z" fill="white"/>
<path fill-rule="evenodd" clip-rule="evenodd" d="M110.176 18.1225C110.019 18.057 109.835 18.0791 109.698 18.1803C108.834 18.819 107.691 19.4263 106.028 19.6351C104.215 19.6351 103.394 19.5817 103.029 19.5268C102.829 19.4968 102.748 19.2745 102.735 19.0723C102.633 17.5264 102.639 11.1319 109.561 9.83471C112.675 9.25128 115.005 9.72693 116.738 10.6558C116.774 10.6753 116.814 10.6904 116.854 10.6998C120.225 11.4981 120.557 10.8986 121.258 9.63097C121.271 9.60749 121.284 9.58368 121.297 9.55971C121.45 9.283 121.83 9.25569 122.027 9.50321C127.963 16.9818 121.857 23.0065 110.176 18.1225Z" fill="#4F4F4F"/>
</g>
<path opacity="0.4" d="M77 2H0V10H77V2Z" fill="#191C2B"/>
<path opacity="0.2" d="M20 27H77V34H20V27Z" fill="#191C2B"/>
<path opacity="0.2" d="M26 15H77V22H26V15Z" fill="#191C2B"/>
<path opacity="0.2" d="M202 2H165V6H202V2Z" fill="#191C2B"/>
<path opacity="0.2" d="M230 11H165V15H230V11Z" fill="#191C2B"/>
<path opacity="0.2" d="M219 29H165V33H219V29Z" fill="#191C2B"/>
<path opacity="0.2" d="M229 20H165V24H229V20Z" fill="#191C2B"/>
<rect opacity="0.4" x="145" y="2" width="14" height="4" fill="#191C2B"/>
<rect opacity="0.4" x="145" y="29" width="15" height="4" fill="#191C2B"/>
<rect opacity="0.4" x="145" y="11" width="13" height="4" fill="#191C2B"/>
<rect opacity="0.4" x="145" y="20" width="15" height="4" fill="#191C2B"/>
<path d="M34 46C34 43.2386 31.7614 41 29 41C26.2386 41 24 43.2386 24 46C24 48.7614 26.2386 51 29 51C31.7614 51 34 48.7614 34 46Z" fill="#45668E"/>
<path d="M76 46C76 43.2386 73.7614 41 71 41C68.2386 41 66 43.2386 66 46C66 48.7614 68.2386 51 71 51C73.7614 51 76 48.7614 76 46Z" fill="#45668E"/>
<path d="M48 46C48 43.2386 45.7614 41 43 41C40.2386 41 38 43.2386 38 46C38 48.7614 40.2386 51 43 51C45.7614 51 48 48.7614 48 46Z" fill="#45668E"/>
<path d="M62 46C62 43.2386 59.7614 41 57 41C54.2386 41 52 43.2386 52 46C52 48.7614 54.2386 51 57 51C59.7614 51 62 48.7614 62 46Z" fill="#45668E"/>
</svg>
