<svg width="230" height="51" viewBox="0 0 230 51" fill="none" xmlns="http://www.w3.org/2000/svg">
<path opacity="0.4" d="M40 20.2C40 9.15426 31.0457 0.199951 20 0.199951V0.199951C8.9543 0.199951 0 9.15426 0 20.2V20.2C0 31.2456 8.9543 40.2 20 40.2V40.2C31.0457 40.2 40 31.2456 40 20.2V20.2Z" fill="#1CB4E7"/>
<mask id="mask0" mask-type="alpha" maskUnits="userSpaceOnUse" x="0" y="0" width="40" height="41">
<path d="M40 0.199951H0V40.2H40V0.199951Z" fill="#F0F4F6"/>
</mask>
<g mask="url(#mask0)">
<path d="M7.36206 41.3462C7.36206 34.3432 13.014 28.666 19.9859 28.666C26.9578 28.666 32.6098 34.3432 32.6098 41.3462V42.4989H7.36206V41.3462Z" fill="white"/>
<path d="M20.5595 29.8183C25.947 29.8183 30.3144 25.4314 30.3144 20.02C30.3144 14.6085 25.947 10.2217 20.5595 10.2217C15.1721 10.2217 10.8047 14.6085 10.8047 20.02C10.8047 25.4314 15.1721 29.8183 20.5595 29.8183Z" fill="white"/>
<path fill-rule="evenodd" clip-rule="evenodd" d="M18.1758 18.1227C18.019 18.0571 17.8349 18.0792 17.6982 18.1804C16.8342 18.8192 15.6913 19.4264 14.0276 19.6353C12.2149 19.6353 11.3939 19.5819 11.0285 19.5269C10.8291 19.4969 10.7484 19.2746 10.7351 19.0724C10.6329 17.5265 10.6392 11.1321 17.5609 9.83483C20.6745 9.25141 23.0053 9.72705 24.7383 10.6559C24.7745 10.6754 24.8142 10.6905 24.8542 10.6999C28.2253 11.4982 28.5567 10.8987 29.2576 9.63109C29.2707 9.60761 29.2839 9.5838 29.2971 9.55983C29.4503 9.28312 29.8303 9.25581 30.0267 9.50333C35.9632 16.9819 29.8566 23.0066 18.1758 18.1227Z" fill="#4F4F4F"/>
</g>
<path opacity="0.4" d="M127 2H50V10H127V2Z" fill="#191C2B"/>
<path opacity="0.2" d="M50 15H107V22H50V15Z" fill="#191C2B"/>
<path opacity="0.2" d="M50 26H101V33H50V26Z" fill="#191C2B"/>
<path opacity="0.2" d="M202 2H165V6H202V2Z" fill="#191C2B"/>
<path opacity="0.2" d="M230 11H165V15H230V11Z" fill="#191C2B"/>
<path opacity="0.2" d="M219 20H165V24H219V20Z" fill="#191C2B"/>
<path opacity="0.2" d="M229 29H165V33H229V29Z" fill="#191C2B"/>
<path d="M168 46C168 43.2386 165.761 41 163 41C160.239 41 158 43.2386 158 46C158 48.7614 160.239 51 163 51C165.761 51 168 48.7614 168 46Z" fill="#45668E"/>
<path d="M213 46C213 43.2386 210.761 41 208 41C205.239 41 203 43.2386 203 46C203 48.7614 205.239 51 208 51C210.761 51 213 48.7614 213 46Z" fill="#45668E"/>
<path d="M183 46C183 43.2386 180.761 41 178 41C175.239 41 173 43.2386 173 46C173 48.7614 175.239 51 178 51C180.761 51 183 48.7614 183 46Z" fill="#45668E"/>
<path d="M198 46C198 43.2386 195.761 41 193 41C190.239 41 188 43.2386 188 46C188 48.7614 190.239 51 193 51C195.761 51 198 48.7614 198 46Z" fill="#45668E"/>
<rect opacity="0.4" x="158" y="2" width="4" height="4" fill="#191C2B"/>
<rect opacity="0.4" x="158" y="20" width="4" height="4" fill="#191C2B"/>
<rect opacity="0.4" x="158" y="11" width="4" height="4" fill="#191C2B"/>
<rect opacity="0.4" x="158" y="29" width="4" height="4" fill="#191C2B"/>
</svg>
