<svg width="190" height="143" viewBox="0 0 190 143" fill="none" xmlns="http://www.w3.org/2000/svg">
<path d="M190 80H0V143H190V80Z" fill="#45668E"/>
<path opacity="0.4" d="M40 20.2C40 9.15426 31.0457 0.199951 20 0.199951V0.199951C8.9543 0.199951 0 9.15426 0 20.2V20.2C0 31.2456 8.9543 40.2 20 40.2V40.2C31.0457 40.2 40 31.2456 40 20.2V20.2Z" fill="#1CB4E7"/>
<mask id="mask0" mask-type="alpha" maskUnits="userSpaceOnUse" x="0" y="0" width="40" height="41">
<path d="M40 20.2C40 9.15426 31.0457 0.199951 20 0.199951V0.199951C8.95431 0.199951 0 9.15426 0 20.2V20.2C0 31.2456 8.95431 40.2 20 40.2V40.2C31.0457 40.2 40 31.2456 40 20.2V20.2Z" fill="#F0F4F6"/>
</mask>
<g mask="url(#mask0)">
<path d="M7.36206 41.3462C7.36206 34.3432 13.014 28.666 19.9859 28.666C26.9578 28.666 32.6098 34.3432 32.6098 41.3462V41.3462C32.6098 41.9828 32.0937 42.4989 31.457 42.4989H8.51481C7.87816 42.4989 7.36206 41.9828 7.36206 41.3462V41.3462Z" fill="white"/>
<path d="M20.5595 29.8184C25.947 29.8184 30.3144 25.4316 30.3144 20.0201C30.3144 14.6087 25.947 10.2218 20.5595 10.2218C15.1721 10.2218 10.8047 14.6087 10.8047 20.0201C10.8047 25.4316 15.1721 29.8184 20.5595 29.8184Z" fill="white"/>
<path fill-rule="evenodd" clip-rule="evenodd" d="M18.1758 18.1225C18.019 18.057 17.8349 18.0791 17.6982 18.1803C16.8342 18.819 15.6913 19.4263 14.0276 19.6351C12.2149 19.6351 11.3939 19.5817 11.0285 19.5268C10.8291 19.4968 10.7484 19.2745 10.7351 19.0723C10.6329 17.5264 10.6392 11.1319 17.5609 9.83471C20.6745 9.25128 23.0053 9.72693 24.7383 10.6558C24.7745 10.6753 24.8142 10.6904 24.8542 10.6998C28.2253 11.4981 28.5567 10.8986 29.2576 9.63097C29.2707 9.60749 29.2839 9.58368 29.2971 9.55971C29.4503 9.283 29.8303 9.25569 30.0267 9.50321C35.9632 16.9818 29.8566 23.0065 18.1758 18.1225Z" fill="#4F4F4F"/>
</g>
<path opacity="0.4" d="M77 50H0V58H77V50Z" fill="#191C2B"/>
<path opacity="0.2" d="M0 63H57V70H0V63Z" fill="#191C2B"/>
<path opacity="0.2" d="M60 63H111V70H60V63Z" fill="#191C2B"/>
<path opacity="0.6" d="M52 88H15V92H52V88Z" fill="white"/>
<path opacity="0.6" d="M80 97H15V101H80V97Z" fill="white"/>
<path opacity="0.6" d="M69 115H15V119H69V115Z" fill="white"/>
<path opacity="0.6" d="M79 106H15V110H79V106Z" fill="white"/>
<rect opacity="0.8" x="8" y="88" width="4" height="4" fill="white"/>
<rect opacity="0.8" x="8" y="115" width="4" height="4" fill="white"/>
<rect opacity="0.8" x="8" y="97" width="4" height="4" fill="white"/>
<rect opacity="0.8" x="8" y="106" width="4" height="4" fill="white"/>
<g opacity="0.8">
<path d="M46.5147 127.781C46.1995 127.981 45.8465 128.123 45.4745 128.2C45.1782 127.865 44.7495 127.659 44.2767 127.659C43.3689 127.659 42.6376 128.432 42.6376 129.38C42.6376 129.515 42.6502 129.644 42.6818 129.773C41.3075 129.695 40.0971 129.012 39.2901 127.968C39.1514 128.226 39.0695 128.516 39.0695 128.832C39.0695 129.431 39.3595 129.953 39.8008 130.263C39.5297 130.256 39.2775 130.179 39.0569 130.05V130.069C39.0569 130.901 39.6242 131.597 40.3744 131.758C40.2357 131.797 40.0907 131.816 39.9394 131.816C39.8323 131.816 39.7314 131.803 39.6305 131.784C39.8386 132.467 40.4438 132.963 41.1625 132.976C40.6014 133.44 39.8953 133.711 39.1262 133.711C38.9938 133.711 38.8614 133.705 38.7354 133.685C39.4603 134.175 40.324 134.459 41.2507 134.459C44.2704 134.459 45.9221 131.835 45.9221 129.56C45.9221 129.483 45.9221 129.412 45.9158 129.335C46.2373 129.09 46.5147 128.787 46.7354 128.445C46.4391 128.58 46.1238 128.677 45.7897 128.716C46.1302 128.516 46.3886 128.181 46.5147 127.781Z" fill="white"/>
</g>
<g opacity="0.8">
<path d="M58.9054 128.918C57.7796 128.918 56.8425 129.836 56.8425 130.981C56.8425 132.126 57.7608 133.044 58.9054 133.044C60.0501 133.044 60.9683 132.107 60.9683 130.981C60.9683 129.855 60.0375 128.918 58.9054 128.918ZM58.9054 132.302C58.1822 132.302 57.5847 131.704 57.5847 130.981C57.5847 130.258 58.1822 129.66 58.9054 129.66C59.6287 129.66 60.2262 130.258 60.2262 130.981C60.2262 131.704 59.635 132.302 58.9054 132.302Z" fill="white"/>
<path d="M62.2638 127.66C61.8424 127.226 61.245 127 60.5657 127H57.245C55.8424 127 54.9116 127.937 54.9116 129.34V132.648C54.9116 133.34 55.138 133.937 55.5909 134.371C56.0248 134.792 56.6097 135 57.2701 135H60.5594C61.2512 135 61.8361 134.774 62.2512 134.371C62.6852 133.95 62.9116 133.352 62.9116 132.66V129.34C62.9053 128.66 62.6789 128.082 62.2638 127.66ZM62.1946 132.66C62.1946 133.157 62.0185 133.566 61.7292 133.836C61.4399 134.107 61.0374 134.258 60.5531 134.258H57.2638C56.7795 134.258 56.377 134.113 56.0877 133.836C55.7984 133.547 55.6538 133.145 55.6538 132.642V129.34C55.6538 128.855 55.7984 128.453 56.0877 128.164C56.3645 127.887 56.7795 127.742 57.2638 127.742H60.5846C61.0689 127.742 61.4714 127.887 61.7607 128.176C62.0374 128.465 62.1946 128.868 62.1946 129.34V132.66Z" fill="white"/>
<path d="M61.0499 129.333C61.3069 129.333 61.5153 129.125 61.5153 128.868C61.5153 128.611 61.3069 128.402 61.0499 128.402C60.7928 128.402 60.5845 128.611 60.5845 128.868C60.5845 129.125 60.7928 129.333 61.0499 129.333Z" fill="white"/>
</g>
<g opacity="0.8">
<path d="M10.86 135.088V131.438H12.1605L12.353 130.013H10.86V129.107C10.86 128.694 10.9794 128.413 11.6098 128.413H12.4061V127.144C12.2733 127.126 11.7956 127.088 11.2448 127.088C10.0902 127.088 9.30058 127.751 9.30058 128.969V130.019H8V131.444H9.30058V135.088H10.86Z" fill="white"/>
</g>
<g opacity="0.8">
<path d="M24.3162 129.764H22.7603V134.568H24.3162V129.764Z" fill="white"/>
<path d="M28.5808 129.715C27.6863 129.715 27.1257 130.187 27.0249 130.518V129.764H25.2737C25.2989 130.162 25.2737 134.568 25.2737 134.568H27.0249V131.97C27.0249 131.823 27.0186 131.682 27.0627 131.578C27.1823 131.29 27.4406 130.989 27.9068 130.989C28.5178 130.989 28.7886 131.431 28.7886 132.086V134.574H30.5587V131.896C30.5587 130.407 29.6894 129.715 28.5808 129.715Z" fill="white"/>
<path d="M23.5098 127.497C22.9365 127.497 22.5586 127.858 22.5586 128.33C22.5586 128.796 22.9239 129.163 23.4909 129.163H23.5035C24.0893 129.163 24.4547 128.796 24.4547 128.33C24.4421 127.852 24.0893 127.497 23.5098 127.497Z" fill="white"/>
</g>
</svg>
