<svg width="190" height="130" viewBox="0 0 190 130" fill="none" xmlns="http://www.w3.org/2000/svg">
<path d="M190 80H0V130H190V80Z" fill="#45668E"/>
<path opacity="0.4" d="M115 50.2C115 39.1543 106.046 30.2 95 30.2V30.2C83.9543 30.2 75 39.1543 75 50.2V50.2C75 61.2457 83.9543 70.2 95 70.2V70.2C106.046 70.2 115 61.2457 115 50.2V50.2Z" fill="#1CB4E7"/>
<mask id="mask0" mask-type="alpha" maskUnits="userSpaceOnUse" x="75" y="30" width="40" height="41">
<path d="M115 50.2C115 39.1543 106.046 30.2 95 30.2V30.2C83.9543 30.2 75 39.1543 75 50.2V50.2C75 61.2457 83.9543 70.2 95 70.2V70.2C106.046 70.2 115 61.2457 115 50.2V50.2Z" fill="#F0F4F6"/>
</mask>
<g mask="url(#mask0)">
<path d="M82.3621 71.3463C82.3621 64.3433 88.014 58.6661 94.9859 58.6661C101.958 58.6661 107.61 64.3433 107.61 71.3463V71.3463C107.61 71.9829 107.094 72.499 106.457 72.499H83.5148C82.8782 72.499 82.3621 71.9829 82.3621 71.3463V71.3463Z" fill="white"/>
<path d="M95.5595 59.8184C100.947 59.8184 105.314 55.4316 105.314 50.0201C105.314 44.6087 100.947 40.2218 95.5595 40.2218C90.1721 40.2218 85.8047 44.6087 85.8047 50.0201C85.8047 55.4316 90.1721 59.8184 95.5595 59.8184Z" fill="white"/>
<path fill-rule="evenodd" clip-rule="evenodd" d="M93.1758 48.1227C93.019 48.0571 92.8349 48.0792 92.6982 48.1804C91.8342 48.8192 90.6913 49.4264 89.0276 49.6353C87.2149 49.6353 86.3939 49.5819 86.0285 49.5269C85.8291 49.4969 85.7484 49.2746 85.7351 49.0724C85.6329 47.5265 85.6392 41.1321 92.5609 39.8348C95.6745 39.2514 98.0053 39.7271 99.7383 40.6559C99.7745 40.6754 99.8142 40.6905 99.8542 40.6999C103.225 41.4982 103.557 40.8987 104.258 39.6311C104.271 39.6076 104.284 39.5838 104.297 39.5598C104.45 39.2831 104.83 39.2558 105.027 39.5033C110.963 46.9819 104.857 53.0066 93.1758 48.1227Z" fill="#4F4F4F"/>
</g>
<path opacity="0.4" d="M134 0H57V8H134V0Z" fill="#191C2B"/>
<path opacity="0.2" d="M40 13H97V20H40V13Z" fill="#191C2B"/>
<path opacity="0.2" d="M100 13H151V20H100V13Z" fill="#191C2B"/>
<path opacity="0.6" d="M126 97H72V101H126V97Z" fill="white"/>
<rect opacity="0.8" x="65" y="97" width="4" height="4" fill="white"/>
<path opacity="0.6" d="M51 88H14V92H51V88Z" fill="white"/>
<path opacity="0.6" d="M115 88H65V92H115V88Z" fill="white"/>
<path opacity="0.6" d="M184 88H129V92H184V88Z" fill="white"/>
<rect opacity="0.8" x="7" y="88" width="4" height="4" fill="white"/>
<rect opacity="0.8" x="58" y="88" width="4" height="4" fill="white"/>
<rect opacity="0.8" x="122" y="88" width="4" height="4" fill="white"/>
<g opacity="0.8">
<path d="M106.515 111.781C106.199 111.981 105.846 112.123 105.475 112.2C105.178 111.865 104.75 111.659 104.277 111.659C103.369 111.659 102.638 112.432 102.638 113.38C102.638 113.515 102.65 113.644 102.682 113.773C101.307 113.695 100.097 113.012 99.2901 111.968C99.1514 112.226 99.0695 112.516 99.0695 112.832C99.0695 113.431 99.3595 113.953 99.8008 114.263C99.5297 114.256 99.2775 114.179 99.0569 114.05V114.069C99.0569 114.901 99.6242 115.597 100.374 115.758C100.236 115.797 100.091 115.816 99.9394 115.816C99.8323 115.816 99.7314 115.803 99.6305 115.784C99.8386 116.467 100.444 116.963 101.162 116.976C100.601 117.44 99.8953 117.711 99.1262 117.711C98.9938 117.711 98.8614 117.705 98.7354 117.685C99.4603 118.175 100.324 118.459 101.251 118.459C104.27 118.459 105.922 115.835 105.922 113.56C105.922 113.483 105.922 113.412 105.916 113.335C106.237 113.09 106.515 112.787 106.735 112.445C106.439 112.58 106.124 112.677 105.79 112.716C106.13 112.516 106.389 112.181 106.515 111.781Z" fill="white"/>
<path d="M118.906 112.918C117.78 112.918 116.843 113.836 116.843 114.981C116.843 116.126 117.761 117.044 118.906 117.044C120.05 117.044 120.969 116.107 120.969 114.981C120.969 113.855 120.038 112.918 118.906 112.918ZM118.906 116.302C118.182 116.302 117.585 115.704 117.585 114.981C117.585 114.258 118.182 113.66 118.906 113.66C119.629 113.66 120.226 114.258 120.226 114.981C120.226 115.704 119.635 116.302 118.906 116.302Z" fill="white"/>
<path d="M122.264 111.66C121.843 111.226 121.245 111 120.566 111H117.245C115.843 111 114.912 111.937 114.912 113.34V116.648C114.912 117.34 115.138 117.937 115.591 118.371C116.025 118.792 116.61 119 117.27 119H120.56C121.251 119 121.836 118.774 122.251 118.371C122.685 117.95 122.912 117.352 122.912 116.66V113.34C122.906 112.66 122.679 112.082 122.264 111.66ZM122.195 116.66C122.195 117.157 122.019 117.566 121.729 117.836C121.44 118.107 121.038 118.258 120.553 118.258H117.264C116.78 118.258 116.377 118.113 116.088 117.836C115.799 117.547 115.654 117.145 115.654 116.642V113.34C115.654 112.855 115.799 112.453 116.088 112.164C116.365 111.887 116.78 111.742 117.264 111.742H120.585C121.069 111.742 121.472 111.887 121.761 112.176C122.038 112.465 122.195 112.868 122.195 113.34V116.66Z" fill="white"/>
<path d="M121.05 113.333C121.307 113.333 121.516 113.125 121.516 112.868C121.516 112.611 121.307 112.402 121.05 112.402C120.793 112.402 120.585 112.611 120.585 112.868C120.585 113.125 120.793 113.333 121.05 113.333Z" fill="white"/>
<path d="M70.86 119.088V115.438H72.1605L72.353 114.013H70.86V113.107C70.86 112.694 70.9794 112.413 71.6098 112.413H72.4061V111.144C72.2733 111.126 71.7956 111.088 71.2448 111.088C70.0902 111.088 69.3006 111.751 69.3006 112.969V114.019H68V115.444H69.3006V119.088H70.86Z" fill="white"/>
<path d="M84.3164 113.764H82.7605V118.568H84.3164V113.764Z" fill="white"/>
<path d="M88.581 113.715C87.6865 113.715 87.1259 114.187 87.0251 114.518V113.764H85.2739C85.2991 114.162 85.2739 118.568 85.2739 118.568H87.0251V115.97C87.0251 115.823 87.0188 115.682 87.0629 115.578C87.1826 115.29 87.4409 114.989 87.907 114.989C88.518 114.989 88.7889 115.431 88.7889 116.086V118.574H90.559V115.896C90.559 114.407 89.6897 113.715 88.581 113.715Z" fill="white"/>
<path d="M83.51 111.497C82.9368 111.497 82.5588 111.858 82.5588 112.33C82.5588 112.796 82.9242 113.163 83.4911 113.163H83.5037C84.0895 113.163 84.4549 112.796 84.4549 112.33C84.4423 111.852 84.0895 111.497 83.51 111.497Z" fill="white"/>
</g>
</svg>
