<svg width="190" height="69" viewBox="0 0 190 69" fill="none" xmlns="http://www.w3.org/2000/svg">
<path opacity="0.4" d="M40 0.199951H0V40.2H40V0.199951Z" fill="#1CB4E7"/>
<mask id="mask0" mask-type="alpha" maskUnits="userSpaceOnUse" x="0" y="0" width="40" height="41">
<path d="M40 0.199951H0V40.2H40V0.199951Z" fill="#F0F4F6"/>
</mask>
<g mask="url(#mask0)">
<path d="M7.36206 41.3462C7.36206 34.3432 13.014 28.666 19.9859 28.666C26.9578 28.666 32.6098 34.3432 32.6098 41.3462V42.4989H7.36206V41.3462Z" fill="white"/>
<path d="M20.5595 29.8183C25.947 29.8183 30.3144 25.4314 30.3144 20.02C30.3144 14.6085 25.947 10.2217 20.5595 10.2217C15.1721 10.2217 10.8047 14.6085 10.8047 20.02C10.8047 25.4314 15.1721 29.8183 20.5595 29.8183Z" fill="white"/>
<path fill-rule="evenodd" clip-rule="evenodd" d="M18.1758 18.1227C18.019 18.0571 17.8349 18.0792 17.6982 18.1804C16.8342 18.8192 15.6913 19.4264 14.0276 19.6353C12.2149 19.6353 11.3939 19.5819 11.0285 19.5269C10.8291 19.4969 10.7484 19.2746 10.7351 19.0724C10.6329 17.5265 10.6392 11.1321 17.5609 9.83483C20.6745 9.25141 23.0053 9.72705 24.7383 10.6559C24.7745 10.6754 24.8142 10.6905 24.8542 10.6999C28.2253 11.4982 28.5567 10.8987 29.2576 9.63109C29.2707 9.60761 29.2839 9.5838 29.2971 9.55983C29.4503 9.28312 29.8303 9.25581 30.0267 9.50333C35.9632 16.9819 29.8566 23.0066 18.1758 18.1227Z" fill="#4F4F4F"/>
</g>
<path opacity="0.4" d="M127 2H50V10H127V2Z" fill="#191C2B"/>
<path opacity="0.2" d="M50 14H107V21H50V14Z" fill="#191C2B"/>
<path opacity="0.2" d="M110 14H161V21H110V14Z" fill="#191C2B"/>
<path opacity="0.2" d="M94 37H57V41H94V37Z" fill="#191C2B"/>
<path opacity="0.2" d="M174 37H109V41H174V37Z" fill="#191C2B"/>
<path d="M50 30L50 28L190 28L190 30L50 30Z" fill="#45668E"/>
<path opacity="0.2" d="M111 47H57V51H111V47Z" fill="#191C2B"/>
<path opacity="0.2" d="M190 47H126V51H190V47Z" fill="#191C2B"/>
<path d="M60 59H50V69H60V59Z" fill="#4460A0"/>
<path d="M102 59H92V69H102V59Z" fill="url(#paint0_radial)"/>
<path d="M74 59H64V69H74V59Z" fill="#1178B3"/>
<path d="M88 59H78V69H88V59Z" fill="#5AADEC"/>
<rect opacity="0.4" x="50" y="37" width="4" height="4" fill="#191C2B"/>
<rect opacity="0.4" x="50" y="47" width="4" height="4" fill="#191C2B"/>
<rect opacity="0.4" x="102" y="37" width="4" height="4" fill="#191C2B"/>
<rect opacity="0.4" x="119" y="47" width="4" height="4" fill="#191C2B"/>
<defs>
<radialGradient id="paint0_radial" cx="0" cy="0" r="1" gradientUnits="userSpaceOnUse" gradientTransform="translate(93.4923 69.0203) scale(12.7547)">
<stop stop-color="#FFB140"/>
<stop offset="0.2559" stop-color="#FF5445"/>
<stop offset="0.599" stop-color="#FC2B82"/>
<stop offset="1" stop-color="#8E40B7"/>
</radialGradient>
</defs>
</svg>
