<svg width="60" height="60" viewBox="0 0 60 60" fill="none" xmlns="http://www.w3.org/2000/svg">
<rect x="2" y="2" width="56" height="55.7516" rx="27.8758" fill="#F9F9F9"/>
<rect x="2" y="2" width="56" height="56" rx="28" fill="#F9F9F9"/>
<rect x="1.15359" y="1.15359" width="57.6928" height="57.6928" rx="28.8464" fill="white" stroke="#D9DCE5" stroke-width="1.69281"/>
<mask id="mask0" mask-type="alpha" maskUnits="userSpaceOnUse" x="2" y="2" width="56" height="56">
<rect x="2" y="2" width="56" height="56" rx="28" fill="#CB2E2E"/>
</mask>
<g mask="url(#mask0)">
<path d="M12.3086 57.5691C12.3086 47.8084 20.2212 39.8958 29.982 39.8958C39.7427 39.8958 47.6554 47.8084 47.6554 57.5691V59.1758H12.3086V57.5691Z" fill="#EFEFEF"/>
<ellipse cx="30.7832" cy="27.8437" rx="13.6567" ry="13.6567" fill="#EFEFEF"/>
<path fill-rule="evenodd" clip-rule="evenodd" d="M43.8458 12.9235C43.6643 12.7023 43.3143 12.7228 43.1427 12.9518C41.4822 15.1674 38.5314 16.0232 35.0518 14.3866C28.436 11.2193 24.2271 13.036 22.5873 15.9745C22.5473 16.0463 22.4873 16.1067 22.4158 16.1472C16.9105 19.2648 16.9587 25.2684 17.0505 26.6718C17.0623 26.8532 17.1003 27.0677 17.2781 27.1051C17.6846 27.1907 18.7809 27.2855 21.6433 27.2854C24.0414 26.9857 25.6669 26.0972 26.8886 25.1783C27.0118 25.0856 27.1794 25.0661 27.3215 25.1258C43.8858 32.0846 52.5078 23.4861 43.8458 12.9235Z" fill="#BDBDBD"/>
</g>
</svg>
