<svg width="190" height="65" viewBox="0 0 190 65" fill="none" xmlns="http://www.w3.org/2000/svg">
<path opacity="0.4" d="M190 20.2C190 9.15426 181.046 0.199951 170 0.199951V0.199951C158.954 0.199951 150 9.15426 150 20.2V20.2C150 31.2456 158.954 40.2 170 40.2V40.2C181.046 40.2 190 31.2456 190 20.2V20.2Z" fill="#1CB4E7"/>
<mask id="mask0" mask-type="alpha" maskUnits="userSpaceOnUse" x="150" y="0" width="40" height="41">
<path d="M190 20.2C190 9.15426 181.046 0.199951 170 0.199951V0.199951C158.954 0.199951 150 9.15426 150 20.2V20.2C150 31.2456 158.954 40.2 170 40.2V40.2C181.046 40.2 190 31.2456 190 20.2V20.2Z" fill="#F0F4F6"/>
</mask>
<g mask="url(#mask0)">
<path d="M157.362 41.3462C157.362 34.3432 163.014 28.666 169.986 28.666C176.958 28.666 182.61 34.3432 182.61 41.3462V41.3462C182.61 41.9828 182.094 42.4989 181.457 42.4989H158.515C157.878 42.4989 157.362 41.9828 157.362 41.3462V41.3462Z" fill="white"/>
<path d="M170.56 29.8184C175.947 29.8184 180.314 25.4316 180.314 20.0201C180.314 14.6087 175.947 10.2218 170.56 10.2218C165.172 10.2218 160.805 14.6087 160.805 20.0201C160.805 25.4316 165.172 29.8184 170.56 29.8184Z" fill="white"/>
<path fill-rule="evenodd" clip-rule="evenodd" d="M168.176 18.1225C168.019 18.057 167.835 18.0791 167.698 18.1803C166.834 18.819 165.691 19.4263 164.028 19.6351C162.215 19.6351 161.394 19.5817 161.029 19.5268C160.829 19.4968 160.748 19.2745 160.735 19.0723C160.633 17.5264 160.639 11.1319 167.561 9.83471C170.675 9.25128 173.005 9.72693 174.738 10.6558C174.774 10.6753 174.814 10.6904 174.854 10.6998C178.225 11.4981 178.557 10.8986 179.258 9.63097C179.271 9.60749 179.284 9.58368 179.297 9.55971C179.45 9.283 179.83 9.25569 180.027 9.50321C185.963 16.9818 179.857 23.0065 168.176 18.1225Z" fill="#4F4F4F"/>
</g>
<path opacity="0.4" d="M77 2H0V10H77V2Z" fill="#191C2B"/>
<path opacity="0.2" d="M0 14H57V21H0V14Z" fill="#191C2B"/>
<path opacity="0.2" d="M60 14H111V21H60V14Z" fill="#191C2B"/>
<path opacity="0.2" d="M44 31H7V35H44V31Z" fill="#191C2B"/>
<path opacity="0.2" d="M121 31H56V35H121V31Z" fill="#191C2B"/>
<path opacity="0.2" d="M61 41H7V45H61V41Z" fill="#191C2B"/>
<path opacity="0.2" d="M137 41H73V45H137V41Z" fill="#191C2B"/>
<path d="M5 55.5C7.48528 55.5 9.5 57.5147 9.5 60C9.5 62.4853 7.48528 64.5 5 64.5C2.51472 64.5 0.5 62.4853 0.5 60C0.5 57.5147 2.51472 55.5 5 55.5Z" stroke="#45668E"/>
<path d="M47 55.5C49.4853 55.5 51.5 57.5147 51.5 60C51.5 62.4853 49.4853 64.5 47 64.5C44.5147 64.5 42.5 62.4853 42.5 60C42.5 57.5147 44.5147 55.5 47 55.5Z" stroke="#45668E"/>
<path d="M19 55.5C21.4853 55.5 23.5 57.5147 23.5 60C23.5 62.4853 21.4853 64.5 19 64.5C16.5147 64.5 14.5 62.4853 14.5 60C14.5 57.5147 16.5147 55.5 19 55.5Z" stroke="#45668E"/>
<path d="M33 55.5C35.4853 55.5 37.5 57.5147 37.5 60C37.5 62.4853 35.4853 64.5 33 64.5C30.5147 64.5 28.5 62.4853 28.5 60C28.5 57.5147 30.5147 55.5 33 55.5Z" stroke="#45668E"/>
<rect opacity="0.4" y="31" width="4" height="4" fill="#191C2B"/>
<rect opacity="0.4" y="41" width="4" height="4" fill="#191C2B"/>
<rect opacity="0.4" x="49" y="31" width="4" height="4" fill="#191C2B"/>
<rect opacity="0.4" x="66" y="41" width="4" height="4" fill="#191C2B"/>
</svg>
