<svg width="190" height="95" viewBox="0 0 190 95" fill="none" xmlns="http://www.w3.org/2000/svg">
<path opacity="0.4" d="M40 0.199951H0V40.2H40V0.199951Z" fill="#1CB4E7"/>
<mask id="mask0" mask-type="alpha" maskUnits="userSpaceOnUse" x="0" y="0" width="40" height="41">
<path d="M40 0.199951H0V40.2H40V0.199951Z" fill="#F0F4F6"/>
</mask>
<g mask="url(#mask0)">
<path d="M7.36206 41.3462C7.36206 34.3432 13.014 28.666 19.9859 28.666C26.9578 28.666 32.6098 34.3432 32.6098 41.3462V42.4989H7.36206V41.3462Z" fill="white"/>
<path d="M20.5595 29.8184C25.947 29.8184 30.3144 25.4316 30.3144 20.0201C30.3144 14.6087 25.947 10.2218 20.5595 10.2218C15.1721 10.2218 10.8047 14.6087 10.8047 20.0201C10.8047 25.4316 15.1721 29.8184 20.5595 29.8184Z" fill="white"/>
<path fill-rule="evenodd" clip-rule="evenodd" d="M18.1758 18.1225C18.019 18.057 17.8349 18.0791 17.6982 18.1803C16.8342 18.819 15.6913 19.4263 14.0276 19.6351C12.2149 19.6351 11.3939 19.5817 11.0285 19.5268C10.8291 19.4968 10.7484 19.2745 10.7351 19.0723C10.6329 17.5264 10.6392 11.1319 17.5609 9.83471C20.6745 9.25128 23.0053 9.72693 24.7383 10.6558C24.7745 10.6753 24.8142 10.6904 24.8542 10.6998C28.2253 11.4981 28.5567 10.8986 29.2576 9.63097C29.2707 9.60749 29.2839 9.58368 29.2971 9.55971C29.4503 9.283 29.8303 9.25569 30.0267 9.50321C35.9632 16.9818 29.8566 23.0065 18.1758 18.1225Z" fill="#4F4F4F"/>
</g>
<path opacity="0.4" d="M127 12H50V20H127V12Z" fill="#191C2B"/>
<path opacity="0.2" d="M50 0H107V7H50V0Z" fill="#191C2B"/>
<path opacity="0.2" d="M111 0H162V7H111V0Z" fill="#191C2B"/>
<path opacity="0.2" d="M94 32H57V36H94V32Z" fill="#191C2B"/>
<path opacity="0.2" d="M122 41H57V45H122V41Z" fill="#191C2B"/>
<path opacity="0.2" d="M111 59H57V63H111V59Z" fill="#191C2B"/>
<path opacity="0.2" d="M121 50H57V54H121V50Z" fill="#191C2B"/>
<path d="M190 95L190 75L0 75L-8.74228e-07 95L190 95Z" fill="#45668E"/>
<rect opacity="0.4" x="50" y="32" width="4" height="4" fill="#191C2B"/>
<rect opacity="0.4" x="50" y="59" width="4" height="4" fill="#191C2B"/>
<rect opacity="0.4" x="50" y="41" width="4" height="4" fill="#191C2B"/>
<rect opacity="0.4" x="50" y="50" width="4" height="4" fill="#191C2B"/>
<path opacity="0.8" d="M130 80.5C132.485 80.5 134.5 82.5147 134.5 85C134.5 87.4853 132.485 89.5 130 89.5C127.515 89.5 125.5 87.4853 125.5 85C125.5 82.5147 127.515 80.5 130 80.5Z" stroke="white"/>
<path opacity="0.8" d="M175 80.5C177.485 80.5 179.5 82.5147 179.5 85C179.5 87.4853 177.485 89.5 175 89.5C172.515 89.5 170.5 87.4853 170.5 85C170.5 82.5147 172.515 80.5 175 80.5Z" stroke="white"/>
<path opacity="0.8" d="M145 80.5C147.485 80.5 149.5 82.5147 149.5 85C149.5 87.4853 147.485 89.5 145 89.5C142.515 89.5 140.5 87.4853 140.5 85C140.5 82.5147 142.515 80.5 145 80.5Z" stroke="white"/>
<path opacity="0.8" d="M160 80.5C162.485 80.5 164.5 82.5147 164.5 85C164.5 87.4853 162.485 89.5 160 89.5C157.515 89.5 155.5 87.4853 155.5 85C155.5 82.5147 157.515 80.5 160 80.5Z" stroke="white"/>
</svg>
