<svg width="190" height="88" viewBox="0 0 190 88" fill="none" xmlns="http://www.w3.org/2000/svg">
<path d="M190 40L190 0L41 -6.513e-06L41 40L190 40Z" fill="#45668E"/>
<path opacity="0.4" d="M40 0.199951H0V40.2H40V0.199951Z" fill="#1CB4E7"/>
<mask id="mask0" mask-type="alpha" maskUnits="userSpaceOnUse" x="0" y="0" width="40" height="41">
<path d="M40 0.199951H0V40.2H40V0.199951Z" fill="#F0F4F6"/>
</mask>
<g mask="url(#mask0)">
<path d="M7.36206 41.3462C7.36206 34.3432 13.014 28.666 19.9859 28.666C26.9578 28.666 32.6098 34.3432 32.6098 41.3462V42.4989H7.36206V41.3462Z" fill="white"/>
<path d="M20.5595 29.8184C25.947 29.8184 30.3144 25.4316 30.3144 20.0201C30.3144 14.6087 25.947 10.2218 20.5595 10.2218C15.1721 10.2218 10.8047 14.6087 10.8047 20.0201C10.8047 25.4316 15.1721 29.8184 20.5595 29.8184Z" fill="white"/>
<path fill-rule="evenodd" clip-rule="evenodd" d="M18.1758 18.1225C18.019 18.057 17.8349 18.0791 17.6982 18.1803C16.8342 18.819 15.6913 19.4263 14.0276 19.6351C12.2149 19.6351 11.3939 19.5817 11.0285 19.5268C10.8291 19.4968 10.7484 19.2745 10.7351 19.0723C10.6329 17.5264 10.6392 11.1319 17.5609 9.83471C20.6745 9.25128 23.0053 9.72693 24.7383 10.6558C24.7745 10.6753 24.8142 10.6904 24.8542 10.6998C28.2253 11.4981 28.5567 10.8986 29.2576 9.63097C29.2707 9.60749 29.2839 9.58368 29.2971 9.55971C29.4503 9.283 29.8303 9.25569 30.0267 9.50321C35.9632 16.9818 29.8566 23.0065 18.1758 18.1225Z" fill="#4F4F4F"/>
</g>
<path d="M127 22H50V30H127V22Z" fill="white" fill-opacity="0.8"/>
<path opacity="0.6" d="M50 10H107V17H50V10Z" fill="white"/>
<path opacity="0.6" d="M111 10H162V17H111V10Z" fill="white"/>
<path opacity="0.2" d="M87 55H50V59H87V55Z" fill="#191C2B"/>
<path opacity="0.2" d="M159 55H94V59H159V55Z" fill="#191C2B"/>
<path opacity="0.2" d="M175 64H121V68H175V64Z" fill="#191C2B"/>
<path opacity="0.2" d="M114 64H50V68H114V64Z" fill="#191C2B"/>
<rect opacity="0.2" width="1" height="35" transform="matrix(-1 0 0 1 41 53)" fill="#191C2B"/>
<path d="M88.5147 80.693C88.1995 80.8928 87.8465 81.0346 87.4745 81.112C87.1782 80.7768 86.7495 80.5706 86.2767 80.5706C85.3689 80.5706 84.6376 81.344 84.6376 82.2915C84.6376 82.4269 84.6502 82.5558 84.6818 82.6847C83.3075 82.6073 82.0971 81.9241 81.2901 80.8799C81.1514 81.1378 81.0695 81.4278 81.0695 81.7436C81.0695 82.3431 81.3595 82.8652 81.8008 83.1745C81.5297 83.1681 81.2775 83.0907 81.0569 82.9618V82.9812C81.0569 83.8126 81.6242 84.5088 82.3744 84.6699C82.2357 84.7086 82.0907 84.7279 81.9394 84.7279C81.8323 84.7279 81.7314 84.715 81.6305 84.6957C81.8386 85.3789 82.4438 85.8752 83.1625 85.8881C82.6014 86.3522 81.8953 86.6229 81.1262 86.6229C80.9938 86.6229 80.8614 86.6164 80.7354 86.5971C81.4603 87.087 82.324 87.3706 83.2507 87.3706C86.2704 87.3706 87.9221 84.7472 87.9221 82.472C87.9221 82.3946 87.9221 82.3237 87.9158 82.2464C88.2373 82.0015 88.5147 81.6985 88.7354 81.3569C88.4391 81.4923 88.1238 81.5889 87.7897 81.6276C88.1302 81.4278 88.3886 81.0926 88.5147 80.693Z" fill="#24A9E6"/>
<path d="M100.905 81.8301C99.7796 81.8301 98.8425 82.7483 98.8425 83.893C98.8425 85.0376 99.7608 85.9559 100.905 85.9559C102.05 85.9559 102.968 85.0188 102.968 83.893C102.968 82.7672 102.037 81.8301 100.905 81.8301ZM100.905 85.2137C100.182 85.2137 99.5847 84.6162 99.5847 83.893C99.5847 83.1697 100.182 82.5722 100.905 82.5722C101.629 82.5722 102.226 83.1697 102.226 83.893C102.226 84.6162 101.635 85.2137 100.905 85.2137Z" fill="white"/>
<path d="M100.905 81.8301C99.7796 81.8301 98.8425 82.7483 98.8425 83.893C98.8425 85.0376 99.7608 85.9559 100.905 85.9559C102.05 85.9559 102.968 85.0188 102.968 83.893C102.968 82.7672 102.037 81.8301 100.905 81.8301ZM100.905 85.2137C100.182 85.2137 99.5847 84.6162 99.5847 83.893C99.5847 83.1697 100.182 82.5722 100.905 82.5722C101.629 82.5722 102.226 83.1697 102.226 83.893C102.226 84.6162 101.635 85.2137 100.905 85.2137Z" fill="url(#paint0_radial)"/>
<path d="M104.264 80.5722C103.842 80.1383 103.245 79.9119 102.566 79.9119H99.245C97.8424 79.9119 96.9116 80.849 96.9116 82.2515V85.5597C96.9116 86.2515 97.138 86.849 97.5909 87.2829C98.0248 87.7043 98.6097 87.9119 99.2701 87.9119H102.559C103.251 87.9119 103.836 87.6855 104.251 87.2829C104.685 86.8616 104.912 86.2641 104.912 85.5722V82.2515C104.905 81.5722 104.679 80.9936 104.264 80.5722ZM104.195 85.5722C104.195 86.0691 104.019 86.4779 103.729 86.7483C103.44 87.0188 103.037 87.1697 102.553 87.1697H99.2638C98.7795 87.1697 98.377 87.0251 98.0877 86.7483C97.7984 86.459 97.6538 86.0565 97.6538 85.5534V82.2515C97.6538 81.7672 97.7984 81.3647 98.0877 81.0754C98.3645 80.7987 98.7795 80.654 99.2638 80.654H102.585C103.069 80.654 103.471 80.7987 103.761 81.088C104.037 81.3773 104.195 81.7798 104.195 82.2515V85.5722Z" fill="white"/>
<path d="M104.264 80.5722C103.842 80.1383 103.245 79.9119 102.566 79.9119H99.245C97.8424 79.9119 96.9116 80.849 96.9116 82.2515V85.5597C96.9116 86.2515 97.138 86.849 97.5909 87.2829C98.0248 87.7043 98.6097 87.9119 99.2701 87.9119H102.559C103.251 87.9119 103.836 87.6855 104.251 87.2829C104.685 86.8616 104.912 86.2641 104.912 85.5722V82.2515C104.905 81.5722 104.679 80.9936 104.264 80.5722ZM104.195 85.5722C104.195 86.0691 104.019 86.4779 103.729 86.7483C103.44 87.0188 103.037 87.1697 102.553 87.1697H99.2638C98.7795 87.1697 98.377 87.0251 98.0877 86.7483C97.7984 86.459 97.6538 86.0565 97.6538 85.5534V82.2515C97.6538 81.7672 97.7984 81.3647 98.0877 81.0754C98.3645 80.7987 98.7795 80.654 99.2638 80.654H102.585C103.069 80.654 103.471 80.7987 103.761 81.088C104.037 81.3773 104.195 81.7798 104.195 82.2515V85.5722Z" fill="url(#paint1_radial)"/>
<path d="M103.05 82.245C103.307 82.245 103.515 82.0367 103.515 81.7796C103.515 81.5226 103.307 81.3142 103.05 81.3142C102.793 81.3142 102.584 81.5226 102.584 81.7796C102.584 82.0367 102.793 82.245 103.05 82.245Z" fill="white"/>
<path d="M103.05 82.245C103.307 82.245 103.515 82.0367 103.515 81.7796C103.515 81.5226 103.307 81.3142 103.05 81.3142C102.793 81.3142 102.584 81.5226 102.584 81.7796C102.584 82.0367 102.793 82.245 103.05 82.245Z" fill="url(#paint2_radial)"/>
<path d="M52.86 88.0001V84.3501H54.1605L54.353 82.925H52.86V82.0188C52.86 81.6063 52.9794 81.325 53.6098 81.325H54.4061V80.0563C54.2733 80.0375 53.7956 80 53.2448 80C52.0902 80 51.3006 80.6625 51.3006 81.8813V82.9313H50V84.3563H51.3006V88.0001H52.86Z" fill="#3B5998"/>
<path d="M66.3162 82.6755H64.7603V87.4795H66.3162V82.6755Z" fill="#0077B5"/>
<path d="M70.5808 82.6266C69.6863 82.6266 69.1257 83.0984 69.0249 83.4293V82.6756H67.2737C67.2989 83.0739 67.2737 87.4796 67.2737 87.4796H69.0249V84.8815C69.0249 84.7344 69.0186 84.5935 69.0627 84.4893C69.1823 84.2014 69.4406 83.9011 69.9068 83.9011C70.5178 83.9011 70.7886 84.3423 70.7886 84.9979V87.4857H72.5587V84.808C72.5587 83.319 71.6894 82.6266 70.5808 82.6266Z" fill="#0077B5"/>
<path d="M65.5098 80.4083C64.9365 80.4083 64.5586 80.7698 64.5586 81.2417C64.5586 81.7074 64.9239 82.075 65.4909 82.075H65.5035C66.0893 82.075 66.4547 81.7074 66.4547 81.2417C66.4421 80.7637 66.0893 80.4083 65.5098 80.4083Z" fill="#0077B5"/>
<defs>
<radialGradient id="paint0_radial" cx="0" cy="0" r="1" gradientUnits="userSpaceOnUse" gradientTransform="translate(99.4582 85.9643) scale(5.2623)">
<stop stop-color="#FFB140"/>
<stop offset="0.2559" stop-color="#FF5445"/>
<stop offset="0.599" stop-color="#FC2B82"/>
<stop offset="1" stop-color="#8E40B7"/>
</radialGradient>
<radialGradient id="paint1_radial" cx="0" cy="0" r="1" gradientUnits="userSpaceOnUse" gradientTransform="translate(98.1054 87.9281) scale(10.2037)">
<stop stop-color="#FFB140"/>
<stop offset="0.2559" stop-color="#FF5445"/>
<stop offset="0.599" stop-color="#FC2B82"/>
<stop offset="1" stop-color="#8E40B7"/>
</radialGradient>
<radialGradient id="paint2_radial" cx="0" cy="0" r="1" gradientUnits="userSpaceOnUse" gradientTransform="translate(102.723 82.2469) scale(1.18723)">
<stop stop-color="#FFB140"/>
<stop offset="0.2559" stop-color="#FF5445"/>
<stop offset="0.599" stop-color="#FC2B82"/>
<stop offset="1" stop-color="#8E40B7"/>
</radialGradient>
</defs>
</svg>
